<?xml version="1.0" encoding="utf-8"?>
<!-- Generator: Adobe Illustrator 25.2.0, SVG Export Plug-In . SVG Version: 6.00 Build 0)  -->
<svg version="1.1" id="Layer_1" xmlns="http://www.w3.org/2000/svg" xmlns:xlink="http://www.w3.org/1999/xlink" x="0px" y="0px"
	 viewBox="0 0 487 489" style="enable-background:new 0 0 487 489;" xml:space="preserve">
<style type="text/css">
	.st0{fill-rule:evenodd;clip-rule:evenodd;fill:#4C00FF;}
	.st1{fill:#4C00FF;}
</style>
<g>
	
		<image style="overflow:visible;opacity:0.75;" width="1635" height="1635" xlink:href="6DEE7D92.png"  transform="matrix(0.24 0 0 0.24 56.28 57.36)">
	</image>
	<g>
		<path class="st0" d="M243.5,425.6c-100,0-181.1-81.1-181.1-181.1c0-48,19.1-94,53-128c70.8-70.7,185.4-70.6,256.1,0.2
			c70.6,70.7,70.6,185.2,0,255.9C337.7,406.6,291.6,425.7,243.5,425.6z"/>
	</g>
</g>
<path class="st1" d="M243.5,70.8c95.9,0,173.7,77.8,173.7,173.7s-77.8,173.7-173.7,173.7S69.8,340.5,69.8,244.5
	S147.6,70.8,243.5,70.8 M243.5,56.1C139.4,56.2,55.1,140.6,55.2,244.7c0.1,75.6,45.3,143.9,115,173.4
	c95.9,40.4,206.5-4.5,246.9-100.4c40.4-95.8-4.4-206.3-100.2-246.8C293.7,61.1,268.7,56,243.5,56.1z"/>
</svg>
