<?xml version="1.0" encoding="utf-8"?>
<!-- Generator: Adobe Illustrator 19.0.0, SVG Export Plug-In . SVG Version: 6.00 Build 0)  -->
<svg version="1.1" id="Layer_1" xmlns="http://www.w3.org/2000/svg" xmlns:xlink="http://www.w3.org/1999/xlink" x="0px" y="0px"
	 viewBox="0 0 612 792" style="enable-background:new 0 0 612 792;" xml:space="preserve">
<g>
	<path d="M71.5,77.2c-0.7,0-1.4,0-2.1,0c-0.9,0-1.7-0.1-2.6-0.1c-0.7,0-1.4-0.1-2.1-0.1c-0.7-0.1-1.4-0.2-2.2-0.2
		c-0.7-0.1-1.4-0.1-2.2-0.2c-0.8-0.1-1.6-0.2-2.4-0.4c-1-0.2-2-0.3-2.9-0.5c-1-0.2-2.1-0.5-3.1-0.7c-1.9-0.5-3.7-1-5.5-1.7
		c-1.2-0.4-2.4-0.9-3.6-1.4c-1.3-0.6-2.7-1.2-4-1.9c-1.2-0.6-2.4-1.3-3.5-2c-1.1-0.7-2.1-1.4-3.1-2.2c-0.6-0.5-1.2-1-1.8-1.5
		c-0.8-0.7-1.5-1.4-2.3-2.2c-0.6-0.7-1.2-1.4-1.8-2.1c-0.7-0.9-1.3-1.8-1.9-2.8c-0.6-1-1.1-2-1.5-3.1c-0.3-0.9-0.6-1.9-0.9-2.9
		c-0.2-0.6-0.2-1.2-0.3-1.8c-0.2-1.2-0.2-2.4-0.1-3.6c0-0.9,0.2-1.7,0.3-2.6c0.2-0.9,0.5-1.8,0.8-2.7c0.5-1.5,1.2-2.9,2.1-4.3
		c0.6-0.9,1.3-1.9,1.9-2.8c0.3-0.5,0.7-0.9,1.1-1.3c0.5-0.6,1.1-1.2,1.7-1.7c0.7-0.7,1.5-1.3,2.3-1.9c1.1-0.8,2.1-1.6,3.3-2.3
		c0.9-0.6,1.9-1.2,2.9-1.7c0.9-0.5,1.7-0.9,2.6-1.4c1-0.5,2-0.9,3-1.3c1.6-0.6,3.2-1.2,4.8-1.7c1.7-0.5,3.4-1,5.1-1.4
		c1.2-0.3,2.4-0.5,3.7-0.7c1-0.2,1.9-0.3,2.9-0.5c0.8-0.1,1.7-0.2,2.5-0.3c0.7-0.1,1.3-0.1,2-0.2c0.7-0.1,1.4-0.1,2-0.1
		c0.7,0,1.4-0.1,2.1-0.1c1.8,0,3.7,0,5.5,0c0.7,0,1.5,0.1,2.2,0.1c0.7,0,1.4,0.1,2,0.1c0.7,0.1,1.5,0.2,2.2,0.2
		c0.6,0.1,1.2,0.1,1.8,0.2c0.6,0.1,1.2,0.2,1.8,0.3c1.1,0.2,2.1,0.3,3.2,0.5c0.7,0.1,1.3,0.3,2,0.4c1.3,0.3,2.6,0.6,3.9,1
		c1.2,0.3,2.3,0.7,3.5,1.1c1.2,0.4,2.5,0.9,3.7,1.4c1.3,0.6,2.7,1.2,4,1.9c1.2,0.6,2.4,1.3,3.5,2c1.1,0.7,2.1,1.4,3.1,2.2
		c0.5,0.4,1,0.8,1.5,1.2c0.8,0.8,1.7,1.5,2.5,2.4c0.7,0.7,1.3,1.5,1.9,2.2c0.9,1.1,1.6,2.3,2.3,3.5c0.9,1.6,1.5,3.4,2,5.2
		c0.2,0.7,0.3,1.5,0.3,2.2c0.1,1.1,0.1,2.1,0.1,3.2c0,0.8-0.2,1.6-0.3,2.4c-0.1,1-0.4,2-0.8,2.9c-0.5,1.5-1.2,2.9-2,4.2
		c-0.6,0.9-1.3,1.9-1.9,2.8c-0.3,0.5-0.7,0.9-1.1,1.3c-0.5,0.6-1.1,1.2-1.7,1.7c-0.7,0.6-1.4,1.2-2.1,1.8c-1.1,0.9-2.3,1.8-3.5,2.6
		c-0.9,0.6-1.9,1.1-2.8,1.7c-0.9,0.5-1.7,0.9-2.6,1.3c-1,0.5-2,0.9-3.1,1.3c-1.6,0.7-3.2,1.3-4.9,1.8c-1.7,0.5-3.3,1-5,1.4
		c-1.1,0.3-2.3,0.5-3.5,0.7c-0.8,0.2-1.7,0.3-2.5,0.4c-0.9,0.1-1.7,0.2-2.6,0.3c-0.8,0.1-1.6,0.2-2.4,0.2c-0.7,0.1-1.3,0.1-2,0.1
		c-0.7,0-1.4,0.1-2.1,0.1C73.5,77.2,72.5,77.2,71.5,77.2C71.5,77.2,71.5,77.2,71.5,77.2z M71.5,73.9C71.5,73.9,71.5,73.9,71.5,73.9
		c0.8,0,1.6,0,2.4-0.1c0.3,0,0.5,0,0.8,0c1,0,1.9-0.1,2.9-0.1c0.5,0,0.9-0.1,1.4-0.1c0.7-0.1,1.3-0.2,2-0.2c0.6-0.1,1.1-0.1,1.7-0.2
		c1-0.1,2-0.3,2.9-0.5c1.2-0.2,2.3-0.4,3.5-0.7c1.6-0.4,3.3-0.9,4.9-1.4c0.9-0.3,1.9-0.6,2.8-1c1.7-0.6,3.3-1.3,4.8-2.1
		c0.6-0.3,1.2-0.6,1.8-1c0.9-0.5,1.8-1,2.7-1.6c1-0.7,2.1-1.4,3.1-2.2c0.8-0.6,1.6-1.3,2.4-2c0.5-0.5,1.1-1.1,1.6-1.6
		c0.4-0.4,0.7-0.8,1-1.2c0.6-0.8,1.2-1.7,1.7-2.6c0.5-0.8,0.8-1.6,1.2-2.4c0.4-1,0.7-2,0.9-3c0.1-0.9,0.3-1.7,0.3-2.6
		c0.1-0.9,0-1.8-0.2-2.7c-0.2-0.8-0.3-1.6-0.5-2.4c-0.4-1.3-1-2.6-1.6-3.8c-0.4-0.7-0.8-1.3-1.2-1.9c-0.6-0.8-1.2-1.5-1.8-2.2
		c-0.7-0.7-1.3-1.4-2.1-2.1c-0.8-0.7-1.6-1.3-2.4-1.9c-1.1-0.8-2.2-1.5-3.3-2.2c-1.2-0.7-2.5-1.4-3.8-2c-0.9-0.5-1.9-0.9-2.9-1.3
		c-1.7-0.7-3.5-1.4-5.3-1.9c-1.5-0.4-3-0.8-4.5-1.2c-1.1-0.3-2.3-0.5-3.4-0.7c-0.7-0.1-1.5-0.3-2.2-0.4c-0.7-0.1-1.3-0.2-2-0.2
		c-0.8-0.1-1.7-0.2-2.5-0.3c-0.6-0.1-1.3-0.1-1.9-0.1c-0.6,0-1.3-0.1-1.9-0.1c-0.6,0-1.3,0-1.9,0c-0.9,0-1.8,0-2.7,0
		c-0.9,0-1.7,0.1-2.6,0.1c-0.6,0-1.3,0.1-1.9,0.1c-0.2,0-0.4,0-0.7,0.1c-0.8,0.1-1.7,0.2-2.5,0.3c-0.8,0.1-1.6,0.2-2.3,0.3
		c-1,0.2-2,0.3-2.9,0.5c-1.6,0.3-3.2,0.7-4.8,1.1c-2,0.5-3.9,1.1-5.7,1.8c-1.7,0.6-3.3,1.3-4.9,2.1c-1.3,0.7-2.6,1.4-3.9,2.2
		c-1.1,0.6-2.1,1.3-3.1,2.1c-1,0.7-1.9,1.5-2.7,2.3c-0.8,0.8-1.6,1.6-2.4,2.5c-0.6,0.8-1.2,1.6-1.7,2.4c-0.6,1-1.1,2-1.6,3
		c-0.4,1-0.8,2.1-0.9,3.3c-0.1,0.8-0.2,1.7-0.3,2.5c0,0.4,0,0.7,0,1.1c0.1,0.7,0.1,1.5,0.3,2.2c0.3,1.4,0.7,2.7,1.3,4
		c0.5,1.1,1.1,2.1,1.8,3.1c0.7,0.9,1.4,1.8,2.2,2.6c0.6,0.7,1.3,1.3,2,2c0.6,0.6,1.3,1.1,2,1.6c0.9,0.6,1.8,1.3,2.7,1.8
		c1.2,0.7,2.5,1.4,3.7,2.1c0.8,0.4,1.6,0.8,2.4,1.1c0.8,0.4,1.6,0.7,2.4,1c1.3,0.5,2.6,0.9,3.8,1.3c0.9,0.3,1.8,0.5,2.8,0.8
		c1,0.3,2,0.5,3,0.7c0.7,0.2,1.4,0.3,2.1,0.4c0.7,0.1,1.4,0.2,2.2,0.3c0.7,0.1,1.5,0.2,2.2,0.3c0.7,0.1,1.5,0.2,2.2,0.2
		c0.8,0.1,1.7,0.1,2.5,0.2c0.6,0,1.3,0.1,1.9,0.1c0.7,0,1.4,0,2.1,0C70.9,73.9,71.2,73.9,71.5,73.9z"/>
	<path d="M84.4,61.4c-1.3,0-2.7,0-4,0c0.2-0.6,0.3-1.3,0.5-1.9c0.5-2,1.1-3.9,1.6-5.9c0.6-2.2,1.2-4.4,1.8-6.6
		c0.6-2.1,1.1-4.1,1.7-6.2c0.3-0.9,0.5-1.9,0.9-2.8c0.3-0.8,0.7-1.4,1.3-2c0.8-0.9,1.8-1.5,2.9-1.8c0.2-0.1,0.2-0.2,0.2-0.3
		c0.2-0.8,0.4-1.5,0.6-2.3c0.2-0.6,0.6-1.2,1.3-1.3c1.1-0.2,1.9,0,2.4,1.2c0.3,0.8,0.5,1.7,0.7,2.5c0,0.2,0.1,0.3,0.3,0.3
		c1.1,0.3,2,0.9,2.8,1.7c0.8,0.8,1.3,1.8,1.6,2.9c0.3,1.1,0.6,2.1,0.9,3.2c0.3,1.1,0.6,2.2,0.9,3.3c0.3,1.1,0.6,2.1,0.9,3.2
		c0.3,1.1,0.6,2.2,0.9,3.3c0.3,1.1,0.6,2.2,0.9,3.3c0.3,1.1,0.6,2.2,0.9,3.4c0.2,0.9,0.5,1.7,0.7,2.6c0,0.1,0,0.1,0,0.2
		c-1.3,0-2.7,0-4,0c-0.8-3.1-1.6-6.2-2.4-9.3c-0.1,0-0.2,0-0.3,0c-4.4,0-8.9,0-13.3,0c-0.2,0-0.3,0.1-0.4,0.3
		c-0.6,2.6-1.3,5.1-1.9,7.7C84.6,60.5,84.5,60.9,84.4,61.4z M99.8,49c-0.5-1.8-0.9-3.6-1.4-5.4c-0.8-3-1.5-6.1-2.3-9.1
		c0-0.2-0.1-0.3-0.3-0.3c-0.6-0.1-1.2-0.2-1.9-0.3c-0.4,0-0.8,0-1.1,0c-0.5,0.1-1,0.2-1.6,0.2c-0.1,0-0.2,0.1-0.2,0.2
		c-0.1,0.4-0.2,0.8-0.3,1.2c-0.5,2.1-1,4.2-1.6,6.3c-0.5,1.9-0.9,3.7-1.4,5.6c-0.1,0.5-0.3,1-0.4,1.6C91.6,49,95.7,49,99.8,49z"/>
	<path d="M82.5,47.1c-1.7,0-3.4,0-5.1,0c-1.7,0-3.4,0-5.1,0c-1.7,0-3.4,0-5.1,0c0,4.8,0,9.5,0,14.3c-1.3,0-2.5,0-3.8,0
		c0-0.1,0-0.2,0-0.2c0-3.5,0-7.1,0-10.6c0-0.9,0.3-1.8,1-2.4c0.5-0.5,1.1-0.7,1.8-0.9c0.3-0.1,0.6-0.1,1-0.2c0-1,0-2.1,0-3.1
		c-0.5-0.1-0.9-0.2-1.4-0.4c-1.3-0.4-2.1-1.4-2.3-2.8c0-0.2,0-0.4,0-0.6c0-3.1,0-6.2,0-9.2c0-0.1,0-0.2,0-0.3c6.6,0,13.2,0,19.9,0
		c0,1,0,2.1,0,3.1c-5.3,0-10.7,0-16,0c0,3.4,0,6.7,0,10.1c5.1,0,10.2,0,15.3,0C82.5,45.1,82.5,46.1,82.5,47.1z"/>
	<path d="M47.7,33.8c-3.7,0-7.4,0-11,0c0-1,0-2,0-3.1c0.1,0,0.2,0,0.3,0c2.4,0,4.9,0,7.3,0c1,0,1.9,0.3,2.7,1
		C47.4,32.3,47.7,33,47.7,33.8c1.2-0.1,2.5-0.1,3.7-0.1c0.1-0.7,0.3-1.4,0.8-1.9c0.4-0.5,1-0.7,1.6-0.9c0.6-0.2,1.1-0.2,1.7-0.2
		c2.2,0,4.5,0,6.7,0c0.1,0,0.2,0,0.3,0c0,1,0,2,0,3.1c-3.7,0-7.3,0-11,0c0,9.2,0,18.4,0,27.6c-1.3,0-2.5,0-3.8,0
		C47.7,52.2,47.7,43,47.7,33.8z"/>
</g>
</svg>
