<svg xmlns="http://www.w3.org/2000/svg" xmlns:xlink="http://www.w3.org/1999/xlink" width="624" height="116" viewBox="0 0 624 116"><defs><style>.a{fill:none;}.b{clip-path:url(#a);}.c{fill:#1d1d1b;}.d{fill:#fff;}</style><clipPath id="a"><rect class="a" x="-42.2" y="-3" width="703.1" height="170.7"/></clipPath></defs><g class="b"><path d="M434.3,64.7a14.9326,14.9326,0,0,1-5.9,1.1c-6.3,0-11.1-4-11.1-11.3,0-7,4.8-11.8,11.7-11.8a11.6154,11.6154,0,0,1,5.3,1l-.7,2.4a11.2024,11.2024,0,0,0-4.5-.9c-5.3,0-8.8,3.4-8.8,9.3,0,5.5,3.2,9,8.6,9a12.271,12.271,0,0,0,4.7-.9Z"/></g><g class="b"><path d="M438,43.3a25.762,25.762,0,0,1,5.3-.5c2.9,0,4.8.5,6.2,1.6a4.7121,4.7121,0,0,1,1.9,4,5.1623,5.1623,0,0,1-3.8,4.9v.1a5.7569,5.7569,0,0,1,4.6,5.6,6.24,6.24,0,0,1-1.9,4.5c-1.6,1.4-4.1,2.1-7.8,2.1a24.8511,24.8511,0,0,1-4.5-.3v-22Zm2.9,9.2h2.6c3.1,0,4.9-1.6,4.9-3.8,0-2.6-2-3.7-4.9-3.7a13.38,13.38,0,0,0-2.6.2Zm0,10.8a16.271,16.271,0,0,0,2.4.1c3,0,5.8-1.1,5.8-4.4,0-3.1-2.6-4.3-5.8-4.3h-2.4Z"/></g><g class="b"><polygon points="460 45.5 453.2 45.5 453.2 43 469.8 43 469.8 45.5 462.9 45.5 462.9 65.4 460 65.4 460 45.5"/></g><g class="b"><polygon points="472.3 43 475.2 43 475.2 63 484.7 63 484.7 65.4 472.3 65.4 472.3 43"/></g><g class="b"><path d="M505.3,51a4.0933,4.0933,0,0,1-1.9.3,3.3881,3.3881,0,0,1-3.6-3.7,3.57,3.57,0,0,1,3.8-3.8,4.1768,4.1768,0,0,1,1.7.3l-.2.8a3.3394,3.3394,0,0,0-1.5-.3,2.6843,2.6843,0,0,0-2.8,3,2.6053,2.6053,0,0,0,2.8,2.9,3.0609,3.0609,0,0,0,1.5-.3Z"/></g><g class="b"><path d="M506.9,48.8a1.63,1.63,0,0,0,1.8,1.8,3.0609,3.0609,0,0,0,1.5-.3l.2.7a3.4187,3.4187,0,0,1-1.7.3,2.4667,2.4667,0,0,1-2.6-2.6,2.5017,2.5017,0,0,1,2.5-2.8,2.2627,2.2627,0,0,1,2.2,2.5v.4Zm2.8-.7c0-.6-.2-1.5-1.3-1.5a1.6071,1.6071,0,0,0-1.5,1.5Z"/></g><g class="b"><path d="M511.8,47.4V46h.8l.1.9h0a2.0151,2.0151,0,0,1,1.7-1c.7,0,1.9.4,1.9,2.2v3.1h-1v-3c0-.8-.3-1.5-1.2-1.5a1.3807,1.3807,0,0,0-1.3,1c0,.1-.1.3-.1.4v3.2h-1l.1-3.9Z"/></g><g class="b"><path d="M518.9,44.5V46h1.4v.7h-1.4v2.8c0,.6.2,1,.7,1a1.2681,1.2681,0,0,0,.6-.1v.7a1.95,1.95,0,0,1-.8.1,1.16,1.16,0,0,1-1-.4,1.8093,1.8093,0,0,1-.4-1.4V46.5h-.8V46h.8V44.7Z"/></g><g class="b"><path d="M521.8,48.8a1.63,1.63,0,0,0,1.8,1.8,3.0609,3.0609,0,0,0,1.5-.3l.2.7a3.4187,3.4187,0,0,1-1.7.3,2.4667,2.4667,0,0,1-2.6-2.6,2.5017,2.5017,0,0,1,2.5-2.8,2.2627,2.2627,0,0,1,2.2,2.5v.4Zm2.8-.7c0-.6-.2-1.5-1.3-1.5a1.6071,1.6071,0,0,0-1.5,1.5Z"/></g><g class="b"><path d="M526.7,47.6V46h.8v1h0a1.5021,1.5021,0,0,1,1.5-1.1h.3v.9H529c-.7,0-1.1.5-1.3,1.2v3.2h-.9l-.1-3.6Z"/></g><g class="b"><path d="M532.6,51.2V46.7h-.7V46h.7v-.2a2.61,2.61,0,0,1,.6-1.8,2.1059,2.1059,0,0,1,1.3-.5,1.8839,1.8839,0,0,1,.8.2l-.1.7c-.1-.1-.3-.1-.6-.1-.8,0-1,.7-1,1.5V46h1.3v.7h-1.3v4.5Z"/></g><g class="b"><path d="M540.3,48.6a2.5739,2.5739,0,0,1-2.6,2.8,2.4723,2.4723,0,0,1-2.5-2.7,2.5251,2.5251,0,0,1,2.6-2.8,2.4719,2.4719,0,0,1,2.5,2.7m-4.1,0a1.64,1.64,0,1,0,3.2,0c0-.9-.4-2-1.6-2s-1.6,1-1.6,2"/></g><g class="b"><path d="M541.5,47.6V46h.8v1h0a1.5021,1.5021,0,0,1,1.5-1.1h.3v.9h-.3c-.7,0-1.1.5-1.3,1.2v3.2h-.9l-.1-3.6Z"/></g><g class="b"><path d="M547.4,44a7.9308,7.9308,0,0,1,1.7-.2,3.677,3.677,0,0,1,2,.5,1.4854,1.4854,0,0,1,.6,1.3,1.8147,1.8147,0,0,1-1.2,1.6h0A1.844,1.844,0,0,1,552,49a2.0352,2.0352,0,0,1-.6,1.5,3.4024,3.4024,0,0,1-2.5.7,6.181,6.181,0,0,1-1.5-.1Zm.9,3h.9c1,0,1.6-.5,1.6-1.2,0-.9-.7-1.2-1.6-1.2-.4,0-.7,0-.8.1V47Zm0,3.5h.8c1,0,1.9-.4,1.9-1.4s-.9-1.4-1.9-1.4h-.8Z"/></g><g class="b"><path d="M557.6,49.8v1.4h-.8l-.1-.9h0a1.9472,1.9472,0,0,1-1.7,1c-.8,0-1.8-.5-1.8-2.3V46h1v2.9c0,1,.3,1.7,1.2,1.7a1.4239,1.4239,0,0,0,1.3-.9.7494.7494,0,0,0,.1-.5V46h1v3.8Z"/></g><g class="b"><path d="M559.1,50.2a2.5012,2.5012,0,0,0,1.3.4c.7,0,1-.3,1-.8s-.3-.7-1-1c-.9-.3-1.4-.9-1.4-1.5a1.624,1.624,0,0,1,1.8-1.5,4.1544,4.1544,0,0,1,1.3.3l-.2.7a2.4313,2.4313,0,0,0-1.1-.3c-.6,0-.9.3-.9.7s.3.6,1,.9c.9.3,1.4.8,1.4,1.6,0,.9-.7,1.6-2,1.6a2.411,2.411,0,0,1-1.5-.4Z"/></g><g class="b"><path d="M564.5,44.5a.5764.5764,0,0,1-.6.6.6452.6452,0,0,1-.6-.6.6.6,0,0,1,1.2,0m-1,1.5h1v5.2h-1Z"/></g><g class="b"><path d="M566,47.4V46h.8l.1.9h0a2.0152,2.0152,0,0,1,1.7-1c.7,0,1.9.4,1.9,2.2v3.1h-1v-3c0-.8-.3-1.5-1.2-1.5a1.3807,1.3807,0,0,0-1.3,1c0,.1-.1.3-.1.4v3.2h-1l.1-3.9Z"/></g><g class="b"><path d="M572.6,48.8a1.63,1.63,0,0,0,1.8,1.8,3.0612,3.0612,0,0,0,1.5-.3l.1.7a3.4184,3.4184,0,0,1-1.7.3,2.4666,2.4666,0,0,1-2.6-2.6,2.5017,2.5017,0,0,1,2.5-2.8,2.2627,2.2627,0,0,1,2.2,2.5v.4Zm2.8-.7a1.3542,1.3542,0,0,0-1.3-1.5,1.6071,1.6071,0,0,0-1.5,1.5Z"/></g><g class="b"><path d="M577.3,50.2a2.5012,2.5012,0,0,0,1.3.4c.7,0,1-.3,1-.8s-.3-.7-1-1c-.9-.3-1.4-.9-1.4-1.5a1.6239,1.6239,0,0,1,1.8-1.5,4.1544,4.1544,0,0,1,1.3.3l-.2.7a2.4313,2.4313,0,0,0-1.1-.3c-.6,0-.9.3-.9.7s.3.6,1,.9c.9.3,1.4.8,1.4,1.6,0,.9-.7,1.6-2,1.6a2.411,2.411,0,0,1-1.5-.4Z"/></g><g class="b"><path d="M581.6,50.2a2.5012,2.5012,0,0,0,1.3.4c.7,0,1-.3,1-.8s-.3-.7-1-1c-.9-.3-1.4-.9-1.4-1.5a1.624,1.624,0,0,1,1.8-1.5,4.1544,4.1544,0,0,1,1.3.3l-.2.7a2.4313,2.4313,0,0,0-1.1-.3c-.6,0-.9.3-.9.7s.3.6,1,.9c.9.3,1.4.8,1.4,1.6,0,.9-.7,1.6-2,1.6a2.411,2.411,0,0,1-1.5-.4Z"/></g><g class="b"><polygon points="501.6 55.4 499.4 55.4 499.4 54.6 504.8 54.6 504.8 55.4 502.5 55.4 502.5 61.9 501.6 61.9 501.6 55.4"/></g><g class="b"><path d="M505.3,59.5a1.63,1.63,0,0,0,1.8,1.8,3.0609,3.0609,0,0,0,1.5-.3l.2.7a3.4187,3.4187,0,0,1-1.7.3,2.4667,2.4667,0,0,1-2.6-2.6,2.5017,2.5017,0,0,1,2.5-2.8,2.2627,2.2627,0,0,1,2.2,2.5v.4Zm2.8-.7c0-.6-.2-1.5-1.3-1.5a1.6071,1.6071,0,0,0-1.5,1.5Z"/></g><g class="b"><path d="M514,61.7a3.8063,3.8063,0,0,1-1.5.3,2.4942,2.4942,0,0,1-2.6-2.7,2.6771,2.6771,0,0,1,2.8-2.8,2.0624,2.0624,0,0,1,1.3.3l-.2.7a2.676,2.676,0,0,0-1.1-.2,2.0068,2.0068,0,0,0-.1,4,2.1326,2.1326,0,0,0,1.2-.3Z"/></g><g class="b"><path d="M515.1,54.2h1v3.3h0a2.3364,2.3364,0,0,1,.7-.7,1.6894,1.6894,0,0,1,1-.3c.7,0,1.8.4,1.8,2.2v3.1h-1v-3c0-.8-.3-1.6-1.2-1.6a1.3807,1.3807,0,0,0-1.3,1,.7494.7494,0,0,0-.1.5v3.2h-1l.1-7.7Z"/></g><g class="b"><path d="M521.1,58.1V56.7h.8l.1.9h0a2.0154,2.0154,0,0,1,1.7-1c.7,0,1.9.4,1.9,2.2v3.1h-1v-3c0-.8-.3-1.5-1.2-1.5a1.3807,1.3807,0,0,0-1.3,1c0,.1-.1.3-.1.4V62h-1l.1-3.9Z"/></g><g class="b"><path d="M531.8,59.3a2.5739,2.5739,0,0,1-2.6,2.8,2.4723,2.4723,0,0,1-2.5-2.7,2.5251,2.5251,0,0,1,2.6-2.8,2.4719,2.4719,0,0,1,2.5,2.7m-4.1,0a1.64,1.64,0,1,0,3.2,0c0-.9-.4-2-1.6-2-1.1,0-1.6,1-1.6,2"/></g><g class="b"><rect x="533" y="54.2" width="1" height="7.7"/></g><g class="b"><path d="M540.3,59.3a2.5739,2.5739,0,0,1-2.6,2.8,2.4723,2.4723,0,0,1-2.5-2.7,2.5251,2.5251,0,0,1,2.6-2.8,2.4719,2.4719,0,0,1,2.5,2.7m-4.1,0a1.64,1.64,0,1,0,3.2,0c0-.9-.4-2-1.6-2-1.1,0-1.6,1-1.6,2"/></g><g class="b"><path d="M546.1,56.7v4.4a3.1365,3.1365,0,0,1-.7,2.4,2.5645,2.5645,0,0,1-1.9.6,4.2565,4.2565,0,0,1-1.7-.4l.2-.7a2.9823,2.9823,0,0,0,1.5.4c1,0,1.7-.5,1.7-1.8V61h0a1.9414,1.9414,0,0,1-1.7.9,2.3332,2.3332,0,0,1-2.2-2.6,2.5459,2.5459,0,0,1,2.4-2.8,1.7138,1.7138,0,0,1,1.6.9h0v-.8h.8v.1Zm-1,2.1c0-.2,0-.3-.1-.4a1.2951,1.2951,0,0,0-1.3-1c-.9,0-1.6.8-1.6,2,0,1,.5,1.9,1.5,1.9a1.3807,1.3807,0,0,0,1.3-1,.9015.9015,0,0,0,.1-.5l.1-1Z"/></g><g class="b"><path d="M547.9,56.7l1.1,3.1c.1.3.2.8.3,1.1h0c.1-.3.2-.7.3-1.1l1-3.1h1l-1.4,3.7c-.7,1.8-1.1,2.7-1.8,3.3a2.2013,2.2013,0,0,1-1.2.6l-.2-.8a1.769,1.769,0,0,0,.8-.5,2.4211,2.4211,0,0,0,.8-1.1.3491.3491,0,0,1,.1-.2.31.31,0,0,0-.1-.2l-1.9-4.8Z"/></g><g class="b"><path d="M557.9,61.9l-.1-.7h0a2.0779,2.0779,0,0,1-1.6.8,1.4447,1.4447,0,0,1-1.6-1.5c0-1.3,1.1-2,3.2-1.9v-.1a1.0768,1.0768,0,0,0-1.2-1.2,3.2552,3.2552,0,0,0-1.4.4L555,57a3.0988,3.0988,0,0,1,1.7-.5,1.8542,1.8542,0,0,1,2,2.1v2a5.2881,5.2881,0,0,0,.1,1.3Zm-.1-2.6c-1,0-2.2.2-2.2,1.2a.8393.8393,0,0,0,.9.9,1.3248,1.3248,0,0,0,1.3-.9c0-.1.1-.2.1-.3l-.1-.9Z"/></g><g class="b"><path d="M560.2,58.1V56.7h.8l.1.9h0a2.0152,2.0152,0,0,1,1.7-1c.7,0,1.9.4,1.9,2.2v3.1h-1v-3c0-.8-.3-1.5-1.2-1.5a1.3807,1.3807,0,0,0-1.3,1c0,.1-.1.3-.1.4V62h-1l.1-3.9Z"/></g><g class="b"><path d="M570.8,54.2v7.7h-.9V61h0a1.8749,1.8749,0,0,1-1.8,1c-1.3,0-2.2-1.1-2.2-2.7a2.5458,2.5458,0,0,1,2.4-2.8,1.9231,1.9231,0,0,1,1.6.8h0V54.2Zm-1,4.6v-.4a1.41,1.41,0,0,0-1.4-1.1c-1,0-1.6.9-1.6,2s.5,1.9,1.5,1.9a1.4718,1.4718,0,0,0,1.4-1.1v-.4l.1-.9Z"/></g><g class="b"><polygon points="574.7 54.6 575.6 54.6 575.6 61.1 578.7 61.1 578.7 61.9 574.7 61.9 574.7 54.6"/></g><g class="b"><path d="M580.1,59.5a1.63,1.63,0,0,0,1.8,1.8,3.0612,3.0612,0,0,0,1.5-.3l.2.7a3.4187,3.4187,0,0,1-1.7.3,2.4667,2.4667,0,0,1-2.6-2.6,2.5017,2.5017,0,0,1,2.5-2.8,2.2627,2.2627,0,0,1,2.2,2.5v.4Zm2.8-.7a1.3542,1.3542,0,0,0-1.3-1.5,1.6071,1.6071,0,0,0-1.5,1.5Z"/></g><g class="b"><path d="M587.9,61.9l-.1-.7h0a2.0779,2.0779,0,0,1-1.6.8,1.4447,1.4447,0,0,1-1.6-1.5c0-1.3,1.1-2,3.2-1.9v-.1a1.0768,1.0768,0,0,0-1.2-1.2,3.2552,3.2552,0,0,0-1.4.4L585,57a3.0988,3.0988,0,0,1,1.7-.5,1.8542,1.8542,0,0,1,2,2.1v2a5.2881,5.2881,0,0,0,.1,1.3Zm-.1-2.6c-1,0-2.2.2-2.2,1.2a.8393.8393,0,0,0,.9.9,1.3248,1.3248,0,0,0,1.3-.9c0-.1.1-.2.1-.3l-.1-.9Z"/></g><g class="b"><path d="M594.8,54.2v7.7H594V61h0a1.8748,1.8748,0,0,1-1.8,1c-1.3,0-2.2-1.1-2.2-2.7a2.5458,2.5458,0,0,1,2.4-2.8,1.9231,1.9231,0,0,1,1.6.8h0V54.2Zm-1,4.6v-.4a1.41,1.41,0,0,0-1.4-1.1c-1,0-1.6.9-1.6,2s.5,1.9,1.5,1.9a1.4718,1.4718,0,0,0,1.4-1.1v-.4l.1-.9Z"/></g><g class="b"><path d="M596.9,59.5a1.63,1.63,0,0,0,1.8,1.8,3.0609,3.0609,0,0,0,1.5-.3l.2.7a3.4187,3.4187,0,0,1-1.7.3,2.4667,2.4667,0,0,1-2.6-2.6,2.5017,2.5017,0,0,1,2.5-2.8,2.2627,2.2627,0,0,1,2.2,2.5v.4Zm2.8-.7c0-.6-.2-1.5-1.3-1.5a1.6071,1.6071,0,0,0-1.5,1.5Z"/></g><g class="b"><path d="M601.8,58.3V56.7h.8v1h0a1.5021,1.5021,0,0,1,1.5-1.1h.3v.9h-.3c-.7,0-1.1.5-1.3,1.2v3.2h-.9l-.1-3.6Z"/></g><g class="b"><path d="M605.2,61a2.5012,2.5012,0,0,0,1.3.4c.7,0,1-.3,1-.8s-.3-.7-1-1c-.9-.3-1.4-.9-1.4-1.5a1.624,1.624,0,0,1,1.8-1.5,4.1544,4.1544,0,0,1,1.3.3l-.2.7a2.4308,2.4308,0,0,0-1.1-.3c-.6,0-.9.3-.9.7s.3.6,1,.9c.9.3,1.4.8,1.4,1.6,0,.9-.7,1.6-2,1.6a2.41,2.41,0,0,1-1.5-.4Z"/></g><g class="b"><path d="M609.6,54.2h1v3.3h0a2.3364,2.3364,0,0,1,.7-.7,1.6894,1.6894,0,0,1,1-.3c.7,0,1.8.4,1.8,2.2v3.1h-1v-3c0-.8-.3-1.6-1.2-1.6a1.3807,1.3807,0,0,0-1.3,1,.7494.7494,0,0,0-.1.5v3.2h-1l.1-7.7Z"/></g><g class="b"><path d="M616.7,55.2a.5764.5764,0,0,1-.6.6.6451.6451,0,0,1-.6-.6.6.6,0,1,1,1.2,0m-1.1,1.5h1v5.2h-1Z"/></g><g class="b"><path d="M618.2,58.4V56.7h.9v.9h0a2.15,2.15,0,0,1,1.9-1c1.3,0,2.2,1.1,2.2,2.7,0,1.9-1.1,2.8-2.4,2.8a1.8162,1.8162,0,0,1-1.6-.8h0v2.8h-.9V58.4Zm.9,1.4v.4a1.3905,1.3905,0,0,0,1.4,1.1c1,0,1.6-.8,1.6-2,0-1.1-.6-1.9-1.6-1.9a1.4021,1.4021,0,0,0-1.4,1.2c0,.1-.1.3-.1.4l.1.8Z"/></g><g class="b"><rect x="490.7" y="39.9" width="3.6" height="29.1"/></g><g class="b"><path class="c" d="M221.9,47.8a2.8906,2.8906,0,0,0,1.4.4,1.2363,1.2363,0,0,0,1.4-1.3c0-1.2-2.9-1.4-2.9-3.1a1.831,1.831,0,0,1,2-1.7,2.7444,2.7444,0,0,1,1.2.2l-.1.6a2.1655,2.1655,0,0,0-1.2-.2c-.7,0-1.4.3-1.4,1.1,0,1.3,2.9,1.3,2.9,3.1a1.8635,1.8635,0,0,1-2.1,1.8,2.6485,2.6485,0,0,1-1.4-.3Z"/></g><g class="b"><path class="c" d="M230.3,44.6a3.553,3.553,0,0,0-1-.2,1.9118,1.9118,0,0,0,0,3.8,2.9585,2.9585,0,0,0,1-.2l.1.5a5.0194,5.0194,0,0,1-1.2.2,2.1526,2.1526,0,0,1-2.2-2.4,2.2318,2.2318,0,0,1,2.3-2.4,2.037,2.037,0,0,1,1.1.2Z"/></g><g class="b"><path class="c" d="M232,41.8h.6v3h0a1.5681,1.5681,0,0,1,1.4-.9c1.2,0,1.6.8,1.6,2v2.8H235V45.9c0-.8-.2-1.5-1.1-1.5-1,0-1.4,1-1.4,1.8v2.5H232Z"/></g><g class="b"><polygon class="c" points="242.5 48.6 241.8 48.6 240.6 44.6 240.6 44.6 239.3 48.6 238.6 48.6 237.1 44 237.7 44 238.9 48 239 48 240.3 44 241 44 242.2 48 242.2 48 243.5 44 244.1 44 242.5 48.6"/></g><g class="b"><path class="c" d="M248.4,46c0-.8-.3-1.6-1.2-1.6a1.5457,1.5457,0,0,0-1.4,1.6Zm.3,2.5a3.194,3.194,0,0,1-1.4.3c-1.5,0-2.1-1-2.1-2.4s.8-2.4,2-2.4c1.3,0,1.9,1.1,1.9,2.3v.3h-3.2c0,1,.5,1.8,1.5,1.8a4.9613,4.9613,0,0,0,1.3-.3v.4Z"/></g><g class="b"><path class="c" d="M250.8,44h.6v4.6h-.6Zm.6-1.2h-.6V42h.6Z"/></g><g class="b"><polygon class="c" points="253.1 48.2 255.9 44.5 253.2 44.5 253.2 44 256.6 44 256.6 44.5 253.8 48.2 256.6 48.2 256.6 48.6 253.1 48.6 253.1 48.2"/></g><g class="b"><path class="c" d="M261.1,46c0-.8-.3-1.6-1.2-1.6a1.5457,1.5457,0,0,0-1.4,1.6Zm.3,2.5a3.194,3.194,0,0,1-1.4.3c-1.5,0-2.1-1-2.1-2.4s.8-2.4,2-2.4c1.3,0,1.9,1.1,1.9,2.3v.3h-3.2c0,1,.5,1.8,1.5,1.8a4.96,4.96,0,0,0,1.3-.3v.4Z"/></g><g class="b"><path class="c" d="M263.6,45V44h.6v.9h0a1.39,1.39,0,0,1,1.2-1,.6014.6014,0,0,1,.4.1v.6c-.1,0-.3-.1-.4-.1-.9,0-1.2,1-1.2,1.9v2.3h-.6Z"/></g><g class="b"><path class="c" d="M267.3,44h.6v4.6h-.6Zm.6-1.2h-.6V42h.6Z"/></g><g class="b"><path class="c" d="M269.7,48a2.3754,2.3754,0,0,0,1.2.3.9085.9085,0,0,0,1-.8c0-1.1-2.2-.9-2.2-2.3,0-.9.7-1.3,1.5-1.3a6.5292,6.5292,0,0,1,1.1.2l-.1.5a3.553,3.553,0,0,0-1-.2c-.6,0-1,.2-1,.8,0,.9,2.3.8,2.3,2.3,0,1-.9,1.3-1.6,1.3a5.8526,5.8526,0,0,1-1.3-.2Z"/></g><g class="b"><path class="c" d="M277.3,44.6a3.553,3.553,0,0,0-1-.2,1.9118,1.9118,0,0,0,0,3.8,2.9585,2.9585,0,0,0,1-.2l.1.5a5.02,5.02,0,0,1-1.2.2,2.1527,2.1527,0,0,1-2.2-2.4,2.2319,2.2319,0,0,1,2.3-2.4,2.037,2.037,0,0,1,1.1.2Z"/></g><g class="b"><path class="c" d="M279.1,41.8h.6v3h0a1.568,1.568,0,0,1,1.4-.9c1.2,0,1.6.8,1.6,2v2.8h-.6V45.9c0-.8-.2-1.5-1.1-1.5-1,0-1.4,1-1.4,1.8v2.5H279l.1-6.9Z"/></g><g class="b"><path class="c" d="M287.7,46c0-.8-.3-1.6-1.2-1.6a1.5457,1.5457,0,0,0-1.4,1.6Zm.2,2.5a3.194,3.194,0,0,1-1.4.3c-1.5,0-2.1-1-2.1-2.4s.8-2.4,2-2.4c1.3,0,1.9,1.1,1.9,2.3v.3h-3.2c0,1,.5,1.8,1.5,1.8a4.96,4.96,0,0,0,1.3-.3v.4Z"/></g><g class="b"><polygon class="c" points="293.1 42.3 296.2 42.3 296.2 42.8 293.8 42.8 293.8 45.1 296.1 45.1 296.1 45.6 293.8 45.6 293.8 48.1 296.3 48.1 296.3 48.6 293.1 48.6 293.1 42.3"/></g><g class="b"><path class="c" d="M298.3,44h.6v4.6h-.6Zm.6-1.2h-.6V42h.6Z"/></g><g class="b"><path class="c" d="M302.8,48.3c1,0,1.4-1.1,1.4-1.9s-.4-1.9-1.4-1.9c-1.1,0-1.4,1-1.4,1.9,0,.8.3,1.9,1.4,1.9m1.9.3h-.6v-.7h0a1.4192,1.4192,0,0,1-1.4.8c-1.3,0-1.9-1.1-1.9-2.4,0-1.4.5-2.4,1.9-2.4a1.4329,1.4329,0,0,1,1.4.9h0v-3h.6Z"/></g><g class="b"><path class="c" d="M308.5,48.2c1,0,1.4-1,1.4-1.8,0-1.1-.3-1.9-1.4-1.9s-1.4,1-1.4,1.9c.1.8.5,1.8,1.4,1.8m2,.1a2.102,2.102,0,0,1-2.2,2.4,11.277,11.277,0,0,1-1.4-.2v-.6a3.194,3.194,0,0,0,1.4.3c1.5,0,1.6-1.1,1.6-2.4h0a1.3671,1.3671,0,0,1-1.4.9,2.0634,2.0634,0,0,1-2-2.3c0-1.4.5-2.4,1.9-2.4a1.5375,1.5375,0,0,1,1.4.6h0V44h.6l.1,4.3Z"/></g><g class="b"><path class="c" d="M315.4,46c0-.8-.3-1.6-1.2-1.6a1.5457,1.5457,0,0,0-1.4,1.6Zm.3,2.5a3.194,3.194,0,0,1-1.4.3c-1.5,0-2.1-1-2.1-2.4s.8-2.4,2-2.4c1.3,0,1.9,1.1,1.9,2.3v.3h-3.2c0,1,.5,1.8,1.5,1.8a4.9613,4.9613,0,0,0,1.3-.3v.4Z"/></g><g class="b"><path class="c" d="M317.9,45.1V44h.6v.8h0a1.4472,1.4472,0,0,1,1.5-.9c1.1,0,1.6.8,1.6,1.8v3H321V45.9c0-.9-.3-1.4-1.1-1.4-1,0-1.4.9-1.4,1.7v2.6h-.6Z"/></g><g class="b"><path class="c" d="M325.5,48.3c1,0,1.5-.9,1.5-1.9,0-1.1-.5-1.9-1.5-1.9s-1.5.9-1.5,1.9a1.5943,1.5943,0,0,0,1.5,1.9m0-4.4a2.2018,2.2018,0,0,1,2.2,2.4,2.1526,2.1526,0,0,1-2.2,2.4,2.4091,2.4091,0,0,1,0-4.8"/></g><g class="b"><path class="c" d="M329.1,48a2.3754,2.3754,0,0,0,1.2.3.9085.9085,0,0,0,1-.8c0-1.1-2.2-.9-2.2-2.3,0-.9.7-1.3,1.5-1.3a6.5292,6.5292,0,0,1,1.1.2l-.1.5a3.553,3.553,0,0,0-1-.2c-.6,0-1,.2-1,.8,0,.9,2.3.8,2.3,2.3,0,1-.9,1.3-1.6,1.3a5.8526,5.8526,0,0,1-1.3-.2Z"/></g><g class="b"><path class="c" d="M333.3,48a2.3754,2.3754,0,0,0,1.2.3.9085.9085,0,0,0,1-.8c0-1.1-2.2-.9-2.2-2.3,0-.9.7-1.3,1.5-1.3a6.5292,6.5292,0,0,1,1.1.2l-.1.5a3.553,3.553,0,0,0-1-.2c-.6,0-1,.2-1,.8,0,.9,2.3.8,2.3,2.3,0,1-.9,1.3-1.6,1.3a5.8526,5.8526,0,0,1-1.3-.2Z"/></g><g class="b"><path class="c" d="M340.8,46c0-.8-.3-1.6-1.2-1.6a1.5457,1.5457,0,0,0-1.4,1.6Zm.2,2.5a3.0793,3.0793,0,0,1-1.3.3c-1.5,0-2.1-1-2.1-2.4s.8-2.4,2-2.4c1.3,0,1.9,1.1,1.9,2.3v.3h-3.2c0,1,.5,1.8,1.5,1.8a4.96,4.96,0,0,0,1.3-.3l-.1.4Z"/></g><g class="b"><path class="c" d="M343.2,45.1V44h.6v.8h0a1.4472,1.4472,0,0,1,1.5-.9c1.1,0,1.6.8,1.6,1.8v3h-.6V45.9c0-.9-.3-1.4-1.1-1.4-1,0-1.4.9-1.4,1.7v2.6h-.6Z"/></g><g class="b"><path class="c" d="M348.6,48a2.3754,2.3754,0,0,0,1.2.3.9085.9085,0,0,0,1-.8c0-1.1-2.2-.9-2.2-2.3,0-.9.7-1.3,1.5-1.3a6.5292,6.5292,0,0,1,1.1.2l-.1.5a3.553,3.553,0,0,0-1-.2c-.6,0-1,.2-1,.8,0,.9,2.3.8,2.3,2.3,0,1-.9,1.3-1.6,1.3a5.8526,5.8526,0,0,1-1.3-.2Z"/></g><g class="b"><path class="c" d="M356.2,44.6a3.553,3.553,0,0,0-1-.2,1.76,1.76,0,0,0-1.8,1.9,1.6856,1.6856,0,0,0,1.7,1.9,2.958,2.958,0,0,0,1-.2l.1.5a5.0194,5.0194,0,0,1-1.2.2,2.1526,2.1526,0,0,1-2.2-2.4,2.2318,2.2318,0,0,1,2.3-2.4,2.037,2.037,0,0,1,1.1.2v.5Z"/></g><g class="b"><path class="c" d="M358,41.8h.6v3h0a1.5681,1.5681,0,0,1,1.4-.9c1.2,0,1.6.8,1.6,2v2.8H361V45.9c0-.8-.2-1.5-1.1-1.5-1,0-1.4,1-1.4,1.8v2.5H358Z"/></g><g class="b"><path class="c" d="M366.4,46.3h-.2c-1,0-2.2.1-2.2,1.1,0,.6.4.8,1,.8,1.4,0,1.4-1.2,1.4-1.7v-.2Zm0,1.6h0a1.65,1.65,0,0,1-1.5.9c-1.3,0-1.5-.9-1.5-1.3,0-1.6,1.7-1.6,2.9-1.6h.1v-.2c0-.8-.3-1.2-1.1-1.2a2.5,2.5,0,0,0-1.4.4v-.6a3.5275,3.5275,0,0,1,1.4-.3c1.1,0,1.6.5,1.6,1.7v3h-.6v-.8Z"/></g><g class="b"><path class="c" d="M369.4,44.5h-.9V44h.9v-.3c0-1,0-2,1.2-2a.7492.7492,0,0,1,.5.1v.5a.7492.7492,0,0,0-.5-.1c-.8,0-.7.8-.7,1.4V44h1v.5h-1v4.2h-.6V44.5Z"/></g><g class="b"><path class="c" d="M374.8,44.5h-1.1v3c0,.4.2.8.6.8a.7494.7494,0,0,0,.5-.1v.5c-.1.1-.4.1-.7.1-1,0-1.1-.7-1.1-1.5V44.6h-.9V44h.9V42.9l.6-.2V44h1.1v.5h.1Z"/></g><g class="b"><path class="c" d="M226.3,55.6a3.5292,3.5292,0,0,0-1.4-.3,2.5467,2.5467,0,0,0-2.6,2.7,2.4439,2.4439,0,0,0,2.6,2.7,3.1954,3.1954,0,0,0,1.4-.3v.5a3.6531,3.6531,0,0,1-1.5.3,3.0206,3.0206,0,0,1-3.2-3.3,3.0705,3.0705,0,0,1,3.2-3.3,7.7191,7.7191,0,0,1,1.5.2Z"/></g><g class="b"><path class="c" d="M230.3,60.8c1,0,1.5-.9,1.5-1.9,0-1.1-.5-1.9-1.5-1.9s-1.5.9-1.5,1.9a1.5515,1.5515,0,0,0,1.5,1.9m0-4.3a2.2018,2.2018,0,0,1,2.2,2.4,2.1526,2.1526,0,0,1-2.2,2.4,2.2018,2.2018,0,0,1-2.2-2.4,2.1526,2.1526,0,0,1,2.2-2.4"/></g><g class="b"><path class="c" d="M234.2,57.7V56.6h.6v.8h0a1.4472,1.4472,0,0,1,1.5-.9c1.1,0,1.6.8,1.6,1.8v3h-.6V58.5c0-.9-.3-1.4-1.1-1.4-1,0-1.4.9-1.4,1.7v2.6h-.6Z"/></g><g class="b"><path class="c" d="M240.4,57.1h-.9v-.5h.9v-.3c0-1,0-2,1.2-2a.7494.7494,0,0,1,.5.1v.5a.7494.7494,0,0,0-.5-.1c-.8,0-.7.8-.7,1.4v.4h1v.5h-1v4.2h-.6V57.1Z"/></g><g class="b"><path class="c" d="M245.6,54.7h.7L245.2,56h-.4Zm1,3.9c0-.8-.3-1.6-1.2-1.6a1.5457,1.5457,0,0,0-1.4,1.6Zm.3,2.5a3.194,3.194,0,0,1-1.4.3c-1.5,0-2.1-1-2.1-2.4s.8-2.4,2-2.4c1.3,0,1.9,1.1,1.9,2.3V59H244c0,1,.5,1.8,1.5,1.8a4.9613,4.9613,0,0,0,1.3-.3v.6Z"/></g><g class="b"><path class="c" d="M250.7,60.8c1,0,1.4-1.1,1.4-1.9s-.4-1.9-1.4-1.9c-1.1,0-1.4,1-1.4,1.9s.3,1.9,1.4,1.9m2,.4h-.6v-.7h0a1.4192,1.4192,0,0,1-1.4.8c-1.3,0-1.9-1.1-1.9-2.4,0-1.4.5-2.4,1.9-2.4a1.4329,1.4329,0,0,1,1.4.9h0v-3h.6Z"/></g><g class="b"><path class="c" d="M256.7,54.7h.7L256.3,56h-.4Zm.9,3.9c0-.8-.3-1.6-1.2-1.6a1.5457,1.5457,0,0,0-1.4,1.6Zm.3,2.5a3.0793,3.0793,0,0,1-1.3.3c-1.5,0-2.1-1-2.1-2.4s.8-2.4,2-2.4c1.3,0,1.9,1.1,1.9,2.3V59h-3.2c0,1,.5,1.8,1.5,1.8a4.9613,4.9613,0,0,0,1.3-.3l-.1.6Z"/></g><g class="b"><path class="c" d="M260,57.6v-1h.6v.9h0a1.39,1.39,0,0,1,1.2-1,.6012.6012,0,0,1,.4.1v.6c-.1,0-.3-.1-.4-.1-.9,0-1.2,1-1.2,1.9v2.3H260Z"/></g><g class="b"><path class="c" d="M266.4,58.9h-.2c-1,0-2.2.1-2.2,1.1,0,.6.4.8,1,.8,1.3,0,1.4-1.2,1.4-1.7v-.2Zm.1,1.6h0a1.65,1.65,0,0,1-1.5.9c-1.3,0-1.5-.9-1.5-1.3,0-1.6,1.7-1.6,2.9-1.6h.1v-.2c0-.8-.3-1.2-1.1-1.2a2.5,2.5,0,0,0-1.4.4v-.6a3.5292,3.5292,0,0,1,1.4-.3c1.1,0,1.6.5,1.6,1.7v3.1h-.6l.1-.9Z"/></g><g class="b"><path class="c" d="M271.1,57.1H270v3c0,.4.2.8.6.8a.7494.7494,0,0,0,.5-.1v.5c-.1.1-.4.1-.7.1-1,0-1.1-.7-1.1-1.5V57.2h-.9v-.5h.9V55.6l.6-.2v1.3H271l.1.4Z"/></g><g class="b"><path class="c" d="M272.8,56.6h.6v4.6h-.6Zm.6-1.3h-.6v-.8h.6Z"/></g><g class="b"><path class="c" d="M277.3,60.8c1,0,1.5-.9,1.5-1.9,0-1.1-.5-1.9-1.5-1.9s-1.5.9-1.5,1.9c0,1.1.5,1.9,1.5,1.9m0-4.3a2.2018,2.2018,0,0,1,2.2,2.4,2.1526,2.1526,0,0,1-2.2,2.4,2.2018,2.2018,0,0,1-2.2-2.4c.1-1.3.7-2.4,2.2-2.4"/></g><g class="b"><path class="c" d="M281.3,57.7V56.6h.6v.8h0a1.4472,1.4472,0,0,1,1.5-.9c1.1,0,1.6.8,1.6,1.8v3h-.6V58.5c0-.9-.3-1.4-1.1-1.4-1,0-1.4.9-1.4,1.7v2.6h-.6Z"/></g><g class="b"><path class="c" d="M289.9,60.5a2.3754,2.3754,0,0,0,1.2.3.9085.9085,0,0,0,1-.8c0-1.1-2.2-.9-2.2-2.3,0-.9.7-1.3,1.5-1.3a6.5292,6.5292,0,0,1,1.1.2l-.1.5a3.553,3.553,0,0,0-1-.2c-.6,0-1,.2-1,.8,0,.9,2.3.8,2.3,2.3,0,1-.9,1.3-1.6,1.3a5.8526,5.8526,0,0,1-1.3-.2Z"/></g><g class="b"><path class="c" d="M298.1,60.1v1.1h-.6v-.8h0a1.4472,1.4472,0,0,1-1.5.9c-1.1,0-1.6-.8-1.6-1.8v-3h.6v2.8c0,.9.3,1.4,1.1,1.4,1,0,1.4-.9,1.4-1.7V56.4h.6Z"/></g><g class="b"><path class="c" d="M300.3,56.6h.6v4.6h-.6Zm.5-1.3h-.6v-.8h.6Z"/></g><g class="b"><path class="c" d="M302.6,60.5a2.3754,2.3754,0,0,0,1.2.3.9085.9085,0,0,0,1-.8c0-1.1-2.2-.9-2.2-2.3,0-.9.7-1.3,1.5-1.3a6.5292,6.5292,0,0,1,1.1.2l-.1.5a3.553,3.553,0,0,0-1-.2c-.6,0-1,.2-1,.8,0,.9,2.3.8,2.3,2.3,0,1-.9,1.3-1.6,1.3a5.8526,5.8526,0,0,1-1.3-.2Z"/></g><g class="b"><path class="c" d="M306.9,60.5a2.3754,2.3754,0,0,0,1.2.3.9085.9085,0,0,0,1-.8c0-1.1-2.2-.9-2.2-2.3,0-.9.7-1.3,1.5-1.3a6.5292,6.5292,0,0,1,1.1.2l-.1.5a3.553,3.553,0,0,0-1-.2c-.6,0-1,.2-1,.8,0,.9,2.3.8,2.3,2.3,0,1-.9,1.3-1.6,1.3a5.8526,5.8526,0,0,1-1.3-.2Z"/></g><g class="b"><path class="c" d="M314.3,58.6c0-.8-.3-1.6-1.2-1.6a1.5457,1.5457,0,0,0-1.4,1.6Zm.3,2.5a3.0793,3.0793,0,0,1-1.3.3c-1.5,0-2.1-1-2.1-2.4s.8-2.4,2-2.4c1.3,0,1.9,1.1,1.9,2.3V59h-3.2c0,1,.5,1.8,1.5,1.8a4.9613,4.9613,0,0,0,1.3-.3l-.1.6Z"/></g><g class="b"><path class="c" d="M226.3,68.1a3.5292,3.5292,0,0,0-1.4-.3,2.5467,2.5467,0,0,0-2.6,2.7,2.4439,2.4439,0,0,0,2.6,2.7,3.1954,3.1954,0,0,0,1.4-.3v.5a3.6531,3.6531,0,0,1-1.5.3,3.0206,3.0206,0,0,1-3.2-3.3,3.0705,3.0705,0,0,1,3.2-3.3,7.7191,7.7191,0,0,1,1.5.2Z"/></g><g class="b"><path class="c" d="M230.3,73.4c1,0,1.5-.9,1.5-1.9,0-1.1-.5-1.9-1.5-1.9s-1.5.9-1.5,1.9a1.5943,1.5943,0,0,0,1.5,1.9m0-4.4a2.2018,2.2018,0,0,1,2.2,2.4,2.1526,2.1526,0,0,1-2.2,2.4,2.4091,2.4091,0,0,1,0-4.8"/></g><g class="b"><path class="c" d="M234.2,70.2V69.1h.6V70h0a1.4472,1.4472,0,0,1,1.5-.9c1.1,0,1.6.8,1.6,1.8v3h-.6V71.1c0-.9-.3-1.4-1.1-1.4-1,0-1.4.9-1.4,1.7V74h-.6Z"/></g><g class="b"><path class="c" d="M240.4,69.6h-.9v-.5h.9v-.3c0-1,0-2,1.2-2a.7494.7494,0,0,1,.5.1v.5a.7494.7494,0,0,0-.5-.1c-.8,0-.7.8-.7,1.4v.4h1v.5h-1v4.2h-.6V69.6Z"/></g><g class="b"><path class="c" d="M246.6,71.1c0-.8-.3-1.6-1.2-1.6a1.5457,1.5457,0,0,0-1.4,1.6Zm.3,2.5a3.194,3.194,0,0,1-1.4.3c-1.5,0-2.1-1-2.1-2.4s.8-2.4,2-2.4c1.3,0,1.9,1.1,1.9,2.3v.3H244c0,1,.5,1.8,1.5,1.8a4.9613,4.9613,0,0,0,1.3-.3v.4Z"/></g><g class="b"><path class="c" d="M250.7,73.4c1,0,1.4-1.1,1.4-1.9s-.4-1.9-1.4-1.9c-1.1,0-1.4,1-1.4,1.9.1.9.3,1.9,1.4,1.9m2,.4h-.6V73h0a1.4192,1.4192,0,0,1-1.4.8c-1.3,0-1.9-1.1-1.9-2.4,0-1.4.5-2.4,1.9-2.4a1.4329,1.4329,0,0,1,1.4.9h0v-3h.6Z"/></g><g class="b"><path class="c" d="M257.6,71.1c0-.8-.3-1.6-1.2-1.6a1.5457,1.5457,0,0,0-1.4,1.6Zm.3,2.5a3.0793,3.0793,0,0,1-1.3.3c-1.5,0-2.1-1-2.1-2.4s.8-2.4,2-2.4c1.3,0,1.9,1.1,1.9,2.3v.3h-3.2c0,1,.5,1.8,1.5,1.8a4.9613,4.9613,0,0,0,1.3-.3l-.1.4Z"/></g><g class="b"><path class="c" d="M260,70.2v-1h.6V70h0a1.39,1.39,0,0,1,1.2-1,.6012.6012,0,0,1,.4.1v.6c-.1,0-.3-.1-.4-.1-.9,0-1.2,1-1.2,1.9v2.3H260Z"/></g><g class="b"><path class="c" d="M266.4,71.4h-.2c-1,0-2.2.1-2.2,1.1,0,.6.4.8,1,.8,1.3,0,1.4-1.2,1.4-1.7v-.2Zm.1,1.6h0a1.65,1.65,0,0,1-1.5.9c-1.3,0-1.5-.9-1.5-1.3,0-1.6,1.7-1.6,2.9-1.6h.1v-.2c0-.8-.3-1.2-1.1-1.2a2.5,2.5,0,0,0-1.4.4v-.6a3.5292,3.5292,0,0,1,1.4-.3c1.1,0,1.6.5,1.6,1.7v3.1h-.6l.1-.9Z"/></g><g class="b"><polygon class="c" points="268.6 73.3 271.4 69.6 268.7 69.6 268.7 69.1 272.1 69.1 272.1 69.6 269.3 73.3 272.1 73.3 272.1 73.8 268.6 73.8 268.6 73.3"/></g><g class="b"><path class="c" d="M273.8,69.1h.6v4.6h-.6Zm.6-1.2h-.6v-.8h.6Z"/></g><g class="b"><path class="c" d="M278.4,73.4c1,0,1.5-.9,1.5-1.9,0-1.1-.5-1.9-1.5-1.9s-1.5.9-1.5,1.9a1.5436,1.5436,0,0,0,1.5,1.9m0-4.4a2.2018,2.2018,0,0,1,2.2,2.4,2.1526,2.1526,0,0,1-2.2,2.4,2.2018,2.2018,0,0,1-2.2-2.4,2.1461,2.1461,0,0,1,2.2-2.4"/></g><g class="b"><path class="c" d="M282.3,70.2V69.1h.6V70h0a1.4472,1.4472,0,0,1,1.5-.9c1.1,0,1.6.8,1.6,1.8v3h-.6V71.1c0-.9-.3-1.4-1.1-1.4-1,0-1.4.9-1.4,1.7V74h-.6Z"/></g><g class="b"><path class="c" d="M290.9,71.1c0-.8-.3-1.6-1.2-1.6a1.5457,1.5457,0,0,0-1.4,1.6Zm.3,2.5a3.194,3.194,0,0,1-1.4.3c-1.5,0-2.1-1-2.1-2.4s.8-2.4,2-2.4c1.3,0,1.9,1.1,1.9,2.3v.3h-3.2c0,1,.5,1.8,1.5,1.8a4.9613,4.9613,0,0,0,1.3-.3v.4Z"/></g><g class="b"><path class="c" d="M296.4,73a2.8906,2.8906,0,0,0,1.4.4,1.2364,1.2364,0,0,0,1.4-1.3c0-1.2-2.9-1.4-2.9-3.1a1.831,1.831,0,0,1,2-1.7,2.7451,2.7451,0,0,1,1.2.2l-.1.6a2.1655,2.1655,0,0,0-1.2-.2c-.7,0-1.4.3-1.4,1.1,0,1.3,2.9,1.3,2.9,3.1a1.8635,1.8635,0,0,1-2.1,1.8,2.6485,2.6485,0,0,1-1.4-.3Z"/></g><g class="b"><polygon class="c" points="303.4 73.8 302.7 73.8 301.1 69.1 301.8 69.1 303 73.1 303.1 73.1 304.4 69.1 305 69.1 303.4 73.8"/></g><g class="b"><path class="c" d="M306.5,69.1h.6v4.6h-.6Zm.6-1.2h-.6v-.8h.6Z"/></g><g class="b"><polygon class="c" points="308.8 73.3 311.6 69.6 308.9 69.6 308.9 69.1 312.3 69.1 312.3 69.6 309.5 73.3 312.3 73.3 312.3 73.8 308.8 73.8 308.8 73.3"/></g><g class="b"><polygon class="c" points="313.6 73.3 316.4 69.6 313.7 69.6 313.7 69.1 317 69.1 317 69.6 314.2 73.3 317 73.3 317 73.8 313.6 73.8 313.6 73.3"/></g><g class="b"><path class="c" d="M321.6,71.1c0-.8-.3-1.6-1.2-1.6a1.5457,1.5457,0,0,0-1.4,1.6Zm.3,2.5a3.0793,3.0793,0,0,1-1.3.3c-1.5,0-2.1-1-2.1-2.4s.8-2.4,2-2.4c1.3,0,1.8,1.1,1.8,2.3v.3H319c0,1,.5,1.8,1.5,1.8a4.9613,4.9613,0,0,0,1.3-.3v.4Z"/></g><g class="b"><path class="c" d="M324,70.2v-1h.6V70h0a1.39,1.39,0,0,1,1.2-1,.6012.6012,0,0,1,.4.1v.6c-.1,0-.3-.1-.4-.1-.9,0-1.2,1-1.2,1.9v2.3H324Z"/></g><g class="b"><path class="c" d="M330.4,71.4h-.2c-1,0-2.2.1-2.2,1.1,0,.6.4.8,1,.8,1.3,0,1.4-1.2,1.4-1.7v-.2Zm0,1.6h0a1.65,1.65,0,0,1-1.5.9c-1.3,0-1.5-.9-1.5-1.3,0-1.6,1.7-1.6,2.9-1.6h.1v-.2c0-.8-.3-1.2-1.1-1.2a2.5,2.5,0,0,0-1.4.4v-.6a3.5292,3.5292,0,0,1,1.4-.3c1.1,0,1.6.5,1.6,1.7v3.1h-.6V73Z"/></g><g class="b"><path class="c" d="M226.3,80.7a3.5292,3.5292,0,0,0-1.4-.3,2.5467,2.5467,0,0,0-2.6,2.7,2.4439,2.4439,0,0,0,2.6,2.7,3.1954,3.1954,0,0,0,1.4-.3V86a3.6531,3.6531,0,0,1-1.5.3,3.0206,3.0206,0,0,1-3.2-3.3,3.0705,3.0705,0,0,1,3.2-3.3,7.7191,7.7191,0,0,1,1.5.2Z"/></g><g class="b"><path class="c" d="M230.3,86c1,0,1.5-.9,1.5-1.9,0-1.1-.5-1.9-1.5-1.9s-1.5.9-1.5,1.9a1.5943,1.5943,0,0,0,1.5,1.9m0-4.4a2.2018,2.2018,0,0,1,2.2,2.4,2.1526,2.1526,0,0,1-2.2,2.4,2.2018,2.2018,0,0,1-2.2-2.4,2.1526,2.1526,0,0,1,2.2-2.4"/></g><g class="b"><path class="c" d="M234.2,82.8V81.7h.6v.8h0a1.4472,1.4472,0,0,1,1.5-.9c1.1,0,1.6.8,1.6,1.8v3h-.6V83.6c0-.9-.3-1.4-1.1-1.4-1,0-1.4.9-1.4,1.7v2.6h-.6Z"/></g><g class="b"><path class="c" d="M240.4,82.2h-.9v-.5h.9v-.3c0-1,0-2,1.2-2a.7494.7494,0,0,1,.5.1V80a.7494.7494,0,0,0-.5-.1c-.8,0-.7.8-.7,1.4v.4h1v.5h-1v4.2h-.6V82.2Z"/></g><g class="b"><path class="c" d="M246.6,83.7c0-.8-.3-1.6-1.2-1.6a1.5457,1.5457,0,0,0-1.4,1.6Zm.3,2.5a3.194,3.194,0,0,1-1.4.3c-1.5,0-2.1-1-2.1-2.4s.8-2.4,2-2.4c1.3,0,1.9,1.1,1.9,2.3v.3H244c0,1,.5,1.8,1.5,1.8a4.9613,4.9613,0,0,0,1.3-.3v.4Z"/></g><g class="b"><path class="c" d="M250.7,86c1,0,1.4-1.1,1.4-1.9s-.4-1.9-1.4-1.9c-1.1,0-1.4,1-1.4,1.9.1.8.3,1.9,1.4,1.9m2,.3h-.6v-.7h0a1.4192,1.4192,0,0,1-1.4.8c-1.3,0-1.9-1.1-1.9-2.4,0-1.4.5-2.4,1.9-2.4a1.4329,1.4329,0,0,1,1.4.9h0v-3h.6Z"/></g><g class="b"><path class="c" d="M257.6,83.7c0-.8-.3-1.6-1.2-1.6a1.5457,1.5457,0,0,0-1.4,1.6Zm.3,2.5a3.0793,3.0793,0,0,1-1.3.3c-1.5,0-2.1-1-2.1-2.4s.8-2.4,2-2.4c1.3,0,1.9,1.1,1.9,2.3v.3h-3.2c0,1,.5,1.8,1.5,1.8a4.9613,4.9613,0,0,0,1.3-.3l-.1.4Z"/></g><g class="b"><path class="c" d="M260,82.7v-1h.6v.9h0a1.39,1.39,0,0,1,1.2-1,.6012.6012,0,0,1,.4.1v.6c-.1,0-.3-.1-.4-.1-.9,0-1.2,1-1.2,1.9v2.3H260Z"/></g><g class="b"><path class="c" d="M266.4,84h-.2c-1,0-2.2.1-2.2,1.1,0,.6.4.8,1,.8,1.3,0,1.4-1.2,1.4-1.7V84Zm.1,1.6h0a1.65,1.65,0,0,1-1.5.9c-1.3,0-1.5-.9-1.5-1.3,0-1.6,1.7-1.6,2.9-1.6h.1v-.2c0-.8-.3-1.2-1.1-1.2a2.5,2.5,0,0,0-1.4.4V82a3.5292,3.5292,0,0,1,1.4-.3c1.1,0,1.6.5,1.6,1.7v3h-.6l.1-.8Z"/></g><g class="b"><polygon class="c" points="268.6 85.9 271.4 82.2 268.7 82.2 268.7 81.7 272.1 81.7 272.1 82.2 269.3 85.8 272.1 85.8 272.1 86.3 268.6 86.3 268.6 85.9"/></g><g class="b"><path class="c" d="M273.8,81.7h.6v4.6h-.6Zm.6-1.3h-.6v-.8h.6Z"/></g><g class="b"><path class="c" d="M280.2,85.2v1.1h-.6v-.8h0a1.4472,1.4472,0,0,1-1.5.9c-1.1,0-1.6-.8-1.6-1.8v-3h.6v2.8c0,.9.3,1.4,1.1,1.4,1,0,1.4-.9,1.4-1.7V81.5h.6Z"/></g><g class="b"><path class="c" d="M282.3,82.8V81.7h.6v.8h0a1.4472,1.4472,0,0,1,1.5-.9c1.1,0,1.6.8,1.6,1.8v3h-.6V83.6c0-.9-.3-1.4-1.1-1.4-1,0-1.4.9-1.4,1.7v2.6h-.6Z"/></g><g class="b"><path class="c" d="M290.9,85.7a2.3754,2.3754,0,0,0,1.2.3.9085.9085,0,0,0,1-.8c0-1.1-2.2-.9-2.2-2.3,0-.9.7-1.3,1.5-1.3a6.5292,6.5292,0,0,1,1.1.2l-.1.5a3.553,3.553,0,0,0-1-.2c-.6,0-1,.2-1,.8,0,.9,2.3.8,2.3,2.3,0,1-.9,1.3-1.6,1.3a5.8526,5.8526,0,0,1-1.3-.2Z"/></g><g class="b"><polygon class="c" points="297.1 86.3 296.4 86.3 294.9 81.7 295.5 81.7 296.8 85.7 296.8 85.7 298.1 81.7 298.7 81.7 297.1 86.3"/></g><g class="b"><path class="c" d="M300.2,81.7h.6v4.6h-.6Zm.6-1.3h-.6v-.8h.6Z"/></g><g class="b"><polygon class="c" points="302.5 85.9 305.3 82.2 302.7 82.2 302.7 81.7 306 81.7 306 82.2 303.2 85.8 306 85.8 306 86.3 302.5 86.3 302.5 85.9"/></g><g class="b"><path class="c" d="M307.7,82.7v-1h.6v.9h0a1.39,1.39,0,0,1,1.2-1,.6012.6012,0,0,1,.4.1v.6c-.1,0-.3-.1-.4-.1-.9,0-1.2,1-1.2,1.9v2.3h-.6Z"/></g><g class="b"><path class="c" d="M314.1,84h-.2c-1,0-2.2.1-2.2,1.1,0,.6.4.8,1,.8,1.3,0,1.4-1.2,1.4-1.7V84Zm0,1.6h0a1.65,1.65,0,0,1-1.5.9c-1.3,0-1.5-.9-1.5-1.3,0-1.6,1.7-1.6,2.9-1.6h.1v-.2c0-.8-.3-1.2-1.1-1.2a2.5,2.5,0,0,0-1.4.4V82a3.5292,3.5292,0,0,1,1.4-.3c1.1,0,1.6.5,1.6,1.7v3H314l.1-.8Z"/></g><g class="b"><path d="M211.4,42s-4.8-2.1-12.9-2.1h0c-8.1,0-12.9,2.1-12.9,2.1s-.4,9.3,1.4,14.6a19.4273,19.4273,0,0,0,11.5,11.9h0A19.4273,19.4273,0,0,0,210,56.6c1.8-5.2,1.4-14.6,1.4-14.6"/></g><g class="b"><polygon class="d" points="207 50.1 207 55.2 201 55.2 201 61.2 195.9 61.2 195.9 55.2 189.9 55.2 189.9 50.1 195.9 50.1 195.9 44.1 201 44.1 201 50.1 207 50.1"/></g><g class="b"><polygon points="221.7 111.2 221.7 105 225.4 105 225.4 106 223 106 223 107.5 225.2 107.5 225.2 108.5 223 108.5 223 110.1 225.4 110.1 225.4 111.2 221.7 111.2"/></g><g class="b"><path d="M227.7,106.6v.7l.6-.6a2.3535,2.3535,0,0,1,.8-.2,2.92,2.92,0,0,1,.9.2.9183.9183,0,0,1,.4.6c.1-.1.2-.3.3-.4a.85.85,0,0,1,.5-.3,1.4828,1.4828,0,0,1,.7-.1,1.4453,1.4453,0,0,1,.7.2,2.1813,2.1813,0,0,1,.5.4c.1.1.1.3.2.6v3.5h-1.2v-2.5c0-.3,0-.6-.1-.7s-.1-.3-.2-.3c-.1-.1-.2-.1-.4-.1s-.3.1-.5.2a.8506.8506,0,0,0-.3.5,1.2687,1.2687,0,0,0-.1.6v2.4h-1.2v-2.8a1.4453,1.4453,0,0,0-.2-.7c-.1-.2-.3-.2-.5-.2a.8643.8643,0,0,0-.6.3,1.493,1.493,0,0,0-.3,1v2.3h-1.2v-4.7h1.2v.1Z"/></g><g class="b"><path d="M234.5,111.2v-6.7h1.2v2.8a1.38,1.38,0,0,1,.3-.4,2.1859,2.1859,0,0,1,.5-.3,1.2683,1.2683,0,0,1,.6-.1,1.6125,1.6125,0,0,1,1.3.6,2.86,2.86,0,0,1,.5,1.7,5.0666,5.0666,0,0,1-.2,1.3c-.2.4-.4.7-.7.8a1.6894,1.6894,0,0,1-1,.3,1.8839,1.8839,0,0,1-.8-.2,1.47,1.47,0,0,1-.6-.5v.7Zm1.2-2.3a1.7963,1.7963,0,0,0,.3,1.1,1.0122,1.0122,0,0,0,.7.4.7549.7549,0,0,0,.7-.4,1.6086,1.6086,0,0,0,.3-1.1,1.7963,1.7963,0,0,0-.3-1.1.9078.9078,0,0,0-.7-.3.7549.7549,0,0,0-.7.4,1.3273,1.3273,0,0,0-.3,1"/></g><g class="b"><path d="M242.7,111.2v-.7a1.0242,1.0242,0,0,1-.6.5,2.92,2.92,0,0,1-.9.2,1.8839,1.8839,0,0,1-.8-.2,2.6513,2.6513,0,0,1-.6-.5,1.8839,1.8839,0,0,1-.2-.8,1.3058,1.3058,0,0,1,.7-1.2,3.5062,3.5062,0,0,1,1.6-.3h.6v-.1a.9078.9078,0,0,0-.3-.7c-.2-.2-.4-.2-.8-.2-.3,0-.5.1-.8.1a1.6118,1.6118,0,0,0-.7.4v-1a1.445,1.445,0,0,1,.7-.2,2.7686,2.7686,0,0,1,.9-.1,2.9585,2.9585,0,0,1,1,.2,1.7944,1.7944,0,0,1,.7.5,1.4213,1.4213,0,0,1,.2.6c0,.2.1.6.1,1.1v2.4Zm0-2.1h-.3a1.95,1.95,0,0,0-.8.1c-.2.1-.4.1-.5.3a.7581.7581,0,0,0-.2.4.52.52,0,0,0,.2.4.7638.7638,0,0,0,.5.2,1.4213,1.4213,0,0,0,.6-.2c.2-.1.3-.3.4-.4,0-.3.1-.5.1-.8"/></g><g class="b"><path d="M247.8,106.7l-.1.9a4.401,4.401,0,0,0-1-.2.8454.8454,0,0,0-.6.2c-.1.1-.2.2-.2.3s0,.2.1.2c.1.1.1.1.2.1h0l.8.3a1.0242,1.0242,0,0,1,.6.5,1.0775,1.0775,0,0,1,.2.8c0,.3,0,.5-.1.6a.7808.7808,0,0,1-.4.4,1.38,1.38,0,0,0-.4.3,2.22,2.22,0,0,1-.9.1,6.7525,6.7525,0,0,1-1.4-.2l.1-1a3.0129,3.0129,0,0,0,1.2.3,1.4442,1.4442,0,0,0,.7-.2.52.52,0,0,0,.2-.4c0-.1,0-.2-.1-.2,0-.1-.1-.1-.2-.1l-.5-.2a3.0329,3.0329,0,0,1-1-.5,1.1354,1.1354,0,0,1-.3-.8,1.2835,1.2835,0,0,1,.4-1,2.1678,2.1678,0,0,1,1.4-.5,7.9057,7.9057,0,0,1,1.3.3"/></g><g class="b"><path d="M251.7,106.7l-.1.9a4.401,4.401,0,0,0-1-.2.8449.8449,0,0,0-.6.2c-.1.1-.2.2-.2.3s0,.2.1.2c.1.1.1.1.2.1h0l.8.3a1.0242,1.0242,0,0,1,.6.5,1.0775,1.0775,0,0,1,.2.8c0,.3,0,.5-.1.6a.78.78,0,0,1-.4.4c-.1.1-.3.2-.4.3a2.22,2.22,0,0,1-.9.1,6.7535,6.7535,0,0,1-1.4-.2l.1-1a3.0129,3.0129,0,0,0,1.2.3,1.4442,1.4442,0,0,0,.7-.2.52.52,0,0,0,.2-.4c0-.1,0-.2-.1-.2,0-.1-.1-.1-.2-.1l-.5-.2a3.0319,3.0319,0,0,1-1-.5,1.1355,1.1355,0,0,1-.3-.8,1.2839,1.2839,0,0,1,.4-1,2.1678,2.1678,0,0,1,1.4-.5,4.9653,4.9653,0,0,1,1.3.3"/></g><g class="b"><path d="M255.9,106.6h1.2l-1.8,4.9-.2.5a2.09,2.09,0,0,1-.4.6.9984.9984,0,0,1-.5.4,1.8539,1.8539,0,0,1-.7.2h-.4a.6012.6012,0,0,1-.4-.1l.1-.9a1.2685,1.2685,0,0,0,.6.1.7638.7638,0,0,0,.5-.2.8547.8547,0,0,0,.3-.6l-1.8-4.8h1.3l1.1,3.4Z"/></g><g class="b"><path d="M264.8,108.9a1.95,1.95,0,0,1-.1.8,2.994,2.994,0,0,1-.4.8,1.1572,1.1572,0,0,1-.7.5,3.5949,3.5949,0,0,1-1.1.2,2.06,2.06,0,0,1-1.7-.7,2.5362,2.5362,0,0,1,0-3.5,2.1932,2.1932,0,0,1,1.7-.7,2.06,2.06,0,0,1,1.7.7,3.0771,3.0771,0,0,1,.6,1.9m-3.5,0a1.6086,1.6086,0,0,0,.3,1.1.91.91,0,0,0,.8.4.9748.9748,0,0,0,.9-.4,1.7963,1.7963,0,0,0,.3-1.1,2.0158,2.0158,0,0,0-.3-1.1,1.02,1.02,0,0,0-.8-.5c-.2,0-.3,0-.4.1l-.3.3a.7581.7581,0,0,0-.2.4.9124.9124,0,0,0-.3.8"/></g><g class="b"><path d="M268.5,104.5l-.1,1a.7494.7494,0,0,0-.5-.1.7638.7638,0,0,0-.5.2,2.5086,2.5086,0,0,0-.1,1h1v.9h-1v3.7h-1.2v-3.7h-.9v-.9h.9a3.9178,3.9178,0,0,1,.2-1.3,1.0242,1.0242,0,0,1,.5-.6c.2-.2.5-.2.9-.2a2.078,2.078,0,0,1,.8,0"/></g><g class="b"><path d="M275.3,105.1l-.1,1a1.4213,1.4213,0,0,0-.6-.2,1.7018,1.7018,0,0,0-.7-.1,1.1655,1.1655,0,0,0-.7.2.55.55,0,0,0-.3.5.6012.6012,0,0,0,.1.4,1.6281,1.6281,0,0,0,.6.3l.9.4a2.4067,2.4067,0,0,1,.8.6,1.6894,1.6894,0,0,1,.3,1,2.92,2.92,0,0,1-.2.9,2.6513,2.6513,0,0,1-.5.6,2.1175,2.1175,0,0,1-.7.3,2.7689,2.7689,0,0,1-.9.1,7.7191,7.7191,0,0,1-1.5-.2l.1-1.1a4.8648,4.8648,0,0,0,.7.3,1.7,1.7,0,0,0,.7.1,1.5487,1.5487,0,0,0,.8-.2.8643.8643,0,0,0,.3-.6.52.52,0,0,0-.2-.4,2.1825,2.1825,0,0,0-.5-.3l-.9-.4a.9186.9186,0,0,1-.6-.4,1.7556,1.7556,0,0,1-.4-.5,1.4828,1.4828,0,0,1-.1-.7,1.76,1.76,0,0,1,.6-1.3,2.5444,2.5444,0,0,1,1.6-.5,7.844,7.844,0,0,1,1.4.2"/></g><g class="b"><polygon points="283.9 106.6 282.5 111.2 281.1 111.2 280.1 107.7 279.1 111.2 277.7 111.2 276.2 106.6 277.4 106.6 278.5 110 279.4 106.6 280.8 106.6 281.8 110 282.8 106.6 283.9 106.6"/></g><g class="b"><path d="M285.9,105.7h-1.2v-1.1h1.2Zm-1.2.9h1.2v4.6h-1.2Z"/></g><g class="b"><path d="M287.5,107.5h-.9v-.9h.9v-.9l1.1-.4v1.3h1.1v.9h-1.1v1.7c0,.4,0,.7.1.8a.7835.7835,0,0,0,1,.2v1a1.95,1.95,0,0,1-.8.1,1.2681,1.2681,0,0,1-.6-.1c-.2-.1-.3-.1-.4-.2l-.3-.3c-.1-.1-.1-.3-.2-.5,0-.2-.1-.4-.1-.7v-2Z"/></g><g class="b"><polygon points="290.4 106.6 294 106.6 294 107.5 291.8 110.2 294.1 110.2 294.1 111.2 290.3 111.2 290.3 110.2 292.6 107.5 290.4 107.5 290.4 106.6"/></g><g class="b"><path d="M298.9,109.2h-3.1a1.42,1.42,0,0,0,.2.6.9975.9975,0,0,0,.5.4,1.4828,1.4828,0,0,0,.7.1,1.7018,1.7018,0,0,0,.7-.1,6.89,6.89,0,0,1,.8-.3v1a.8454.8454,0,0,1-.6.2,3.0828,3.0828,0,0,1-1,.1,2.7693,2.7693,0,0,1-1.3-.3,2.0475,2.0475,0,0,1-.8-.8,2.9667,2.9667,0,0,1,0-2.6,1.5492,1.5492,0,0,1,.8-.8,2.55,2.55,0,0,1,2.4,0,2.1776,2.1776,0,0,1,.7.9,5.0664,5.0664,0,0,1,.2,1.3c-.2.1-.2.2-.2.3m-3.1-.8h2a1.2224,1.2224,0,0,0-.3-.9.9078.9078,0,0,0-.7-.3.8454.8454,0,0,0-.6.2,1.2839,1.2839,0,0,0-.4,1"/></g><g class="b"><path d="M299.8,106.6h1.1v1.2a1.346,1.346,0,0,1,.5-.9,1.1355,1.1355,0,0,1,.8-.3h.3v1.1c-.1,0-.2-.1-.4-.1a.7494.7494,0,0,0-.5.1c-.1.1-.3.2-.4.3a.7638.7638,0,0,0-.2.5c0,.2-.1.4-.1.7v1.9h-1.2v-4.4Z"/></g><g class="b"><rect x="303.4" y="104.5" width="1.2" height="6.7"/></g><g class="b"><path d="M308.6,111.2v-.7a1.0242,1.0242,0,0,1-.6.5,2.92,2.92,0,0,1-.9.2,1.8839,1.8839,0,0,1-.8-.2,2.6513,2.6513,0,0,1-.6-.5,1.8839,1.8839,0,0,1-.2-.8,1.3058,1.3058,0,0,1,.7-1.2,3.5062,3.5062,0,0,1,1.6-.3h.6v-.1a.9078.9078,0,0,0-.3-.7c-.2-.2-.4-.2-.8-.2-.3,0-.5.1-.8.1a1.6118,1.6118,0,0,0-.7.4v-1a1.4453,1.4453,0,0,1,.7-.2,2.7686,2.7686,0,0,1,.9-.1,2.9585,2.9585,0,0,1,1,.2,1.7937,1.7937,0,0,1,.7.5,1.4213,1.4213,0,0,1,.2.6c0,.2.1.6.1,1.1v2.4Zm-.1-2.1h-.3a1.95,1.95,0,0,0-.8.1c-.2.1-.4.1-.5.3a.7581.7581,0,0,0-.2.4.52.52,0,0,0,.2.4.7638.7638,0,0,0,.5.2,1.4213,1.4213,0,0,0,.6-.2c.2-.1.3-.3.4-.4a2.2018,2.2018,0,0,0,.1-.8"/></g><g class="b"><path d="M311.9,106.6v.7a1.645,1.645,0,0,1,1.5-.8,1.7018,1.7018,0,0,1,.7.1,2.1837,2.1837,0,0,1,.5.3c.1.1.2.3.3.4a1.2683,1.2683,0,0,1,.1.6v3.2h-1.2v-2.3a2.5088,2.5088,0,0,0-.1-1,.67.67,0,0,0-.7-.4.7638.7638,0,0,0-.5.2.9984.9984,0,0,0-.4.5,2.22,2.22,0,0,0-.1.9v2.2h-1.2v-4.6Z"/></g><g class="b"><path d="M319.3,107.2v-2.8h1.2v6.7h-1.1v-.7a2.6513,2.6513,0,0,1-.6.5,2.353,2.353,0,0,1-.8.2,1.4834,1.4834,0,0,1-.7-.1,2.1859,2.1859,0,0,1-.5-.3c-.1-.1-.2-.3-.4-.4a4.87,4.87,0,0,1-.3-.7,2.7712,2.7712,0,0,1-.1-.9,2.86,2.86,0,0,1,.5-1.7,1.6778,1.6778,0,0,1,1.4-.6,1.8839,1.8839,0,0,1,.8.2l.6.6m-1.1.3a.9078.9078,0,0,0-.7.3,2.1667,2.1667,0,0,0,0,2.2.9078.9078,0,0,0,.7.3.7549.7549,0,0,0,.7-.4,1.6086,1.6086,0,0,0,.3-1.1,1.493,1.493,0,0,0-.3-1c-.1-.2-.3-.3-.7-.3"/></g><g class="b"><path d="M325.4,105.7h-1.2v-1.1h1.2Zm-1.2.9h1.2v4.6h-1.2Z"/></g><g class="b"><path d="M327.8,106.6v.7a1.645,1.645,0,0,1,1.5-.8,1.4828,1.4828,0,0,1,.7.1,2.1859,2.1859,0,0,1,.5.3c.1.1.2.3.3.4a1.2683,1.2683,0,0,1,.1.6v3.2h-1.2v-2.3a2.5088,2.5088,0,0,0-.1-1,.67.67,0,0,0-.7-.4.7636.7636,0,0,0-.5.2.9991.9991,0,0,0-.4.5,2.2217,2.2217,0,0,0-.1.9v2.2h-1.2v-4.6Z"/></g><g class="b"><path d="M333.8,111.2l2.4-6.2h1.4l2.5,6.2h-1.4l-.5-1.4h-2.6l-.5,1.4Zm2.2-2.5h1.8l-.9-2.5Z"/></g><g class="b"><rect x="340.9" y="104.5" width="1.2" height="6.7"/></g><g class="b"><path d="M343.3,111.2v-6.7h1.2v2.8a1.38,1.38,0,0,1,.3-.4,2.1859,2.1859,0,0,1,.5-.3,1.2683,1.2683,0,0,1,.6-.1,1.6125,1.6125,0,0,1,1.3.6,2.8609,2.8609,0,0,1,.5,1.7,5.0621,5.0621,0,0,1-.2,1.3c-.2.4-.4.7-.7.8a1.6892,1.6892,0,0,1-1,.3,1.8843,1.8843,0,0,1-.8-.2,1.469,1.469,0,0,1-.6-.5v.7Zm1.2-2.3a1.7963,1.7963,0,0,0,.3,1.1,1.0122,1.0122,0,0,0,.7.4.7549.7549,0,0,0,.7-.4,1.6086,1.6086,0,0,0,.3-1.1,1.7963,1.7963,0,0,0-.3-1.1.9078.9078,0,0,0-.7-.3.7549.7549,0,0,0-.7.4,1.3273,1.3273,0,0,0-.3,1"/></g><g class="b"><path d="M351.5,111.2v-.7a1.0242,1.0242,0,0,1-.6.5,2.92,2.92,0,0,1-.9.2,1.8839,1.8839,0,0,1-.8-.2,2.6513,2.6513,0,0,1-.6-.5,1.8854,1.8854,0,0,1-.2-.8,1.3058,1.3058,0,0,1,.7-1.2,3.5068,3.5068,0,0,1,1.6-.3h.6v-.1a.9078.9078,0,0,0-.3-.7c-.2-.2-.4-.2-.8-.2-.3,0-.5.1-.8.1a1.6118,1.6118,0,0,0-.7.4v-1a1.4453,1.4453,0,0,1,.7-.2,2.7686,2.7686,0,0,1,.9-.1,2.9575,2.9575,0,0,1,1,.2,1.7948,1.7948,0,0,1,.7.5,1.4227,1.4227,0,0,1,.2.6c0,.2.1.6.1,1.1v2.4Zm-.1-2.1h-.3a1.95,1.95,0,0,0-.8.1c-.2.1-.4.1-.5.3a.7589.7589,0,0,0-.2.4.52.52,0,0,0,.2.4.7638.7638,0,0,0,.5.2,1.42,1.42,0,0,0,.6-.2c.2-.1.3-.3.4-.4a2.2018,2.2018,0,0,0,.1-.8"/></g><g class="b"><path d="M354.8,106.6v.7a1.645,1.645,0,0,1,1.5-.8,1.7018,1.7018,0,0,1,.7.1,2.1859,2.1859,0,0,1,.5.3c.1.1.2.3.3.4a1.2683,1.2683,0,0,1,.1.6v3.2h-1.2v-2.3a2.5088,2.5088,0,0,0-.1-1,.67.67,0,0,0-.7-.4.7636.7636,0,0,0-.5.2.9991.9991,0,0,0-.4.5,2.2217,2.2217,0,0,0-.1.9v2.2h-1.2v-4.6Z"/></g><g class="b"><path d="M360.4,105.7h-1.2v-1.1h1.2Zm-1.2.9h1.2v4.6h-1.2Z"/></g><g class="b"><path d="M364.4,111.2v-.7a1.0242,1.0242,0,0,1-.6.5,2.9186,2.9186,0,0,1-.9.2,1.8839,1.8839,0,0,1-.8-.2,2.6488,2.6488,0,0,1-.6-.5,1.8839,1.8839,0,0,1-.2-.8,1.3059,1.3059,0,0,1,.7-1.2,3.5061,3.5061,0,0,1,1.6-.3h.6v-.1a.9078.9078,0,0,0-.3-.7c-.2-.2-.4-.2-.8-.2-.3,0-.5.1-.8.1a1.6123,1.6123,0,0,0-.7.4v-1a1.4456,1.4456,0,0,1,.7-.2,2.7689,2.7689,0,0,1,.9-.1,2.9585,2.9585,0,0,1,1,.2,1.7937,1.7937,0,0,1,.7.5,1.4213,1.4213,0,0,1,.2.6c0,.2.1.6.1,1.1v2.4Zm-.1-2.1H364a1.95,1.95,0,0,0-.8.1c-.2.1-.4.1-.5.3a.7581.7581,0,0,0-.2.4.52.52,0,0,0,.2.4.7638.7638,0,0,0,.5.2,1.4213,1.4213,0,0,0,.6-.2c.2-.1.3-.3.4-.4a2.2018,2.2018,0,0,0,.1-.8"/></g><g class="b"><path d="M62.6,47.8a1.493,1.493,0,0,0,.3,1,1.3444,1.3444,0,0,0,.6.7,2.01,2.01,0,0,0,.8.4,3.0828,3.0828,0,0,0,1,.1,3.5949,3.5949,0,0,0,1.1-.2,1.6118,1.6118,0,0,0,.7-.4,2.092,2.092,0,0,0,.4-.6,1.7018,1.7018,0,0,0,.1-.7,2.3882,2.3882,0,0,0-.2-.9,2.6513,2.6513,0,0,0-.6-.5,3.1781,3.1781,0,0,0-.9-.3c-.3-.1-.7-.2-1-.3-.4-.1-.7-.2-1-.3s-.6-.3-.9-.4a1.3444,1.3444,0,0,1-.6-.7,1.978,1.978,0,0,1-.2-1.1,2.92,2.92,0,0,1,.2-.9,1.5551,1.5551,0,0,1,.6-.8,8.7941,8.7941,0,0,1,1-.6,5.2124,5.2124,0,0,1,1.4-.2,5.9019,5.9019,0,0,1,1.4.2,2.0749,2.0749,0,0,1,1,.6,2.8373,2.8373,0,0,1,.6.9,3.5949,3.5949,0,0,1,.2,1.1h-.8a1.9968,1.9968,0,0,0-.2-.9,1.0242,1.0242,0,0,0-.5-.6,2.0555,2.0555,0,0,0-1.5-.5,3.5949,3.5949,0,0,0-1.1.2,1.7937,1.7937,0,0,0-.7.5,1.6118,1.6118,0,0,0-.4.7.8544.8544,0,0,0,0,.7,1.5321,1.5321,0,0,0,1.1,1.1l.9.3a3.553,3.553,0,0,0,1,.2c.3.1.7.2,1,.3a4.0493,4.0493,0,0,1,.9.5,4.345,4.345,0,0,1,.6.7,1.978,1.978,0,0,1,.2,1.1,2.3842,2.3842,0,0,1-.9,2,3.7267,3.7267,0,0,1-2.5.7,5.0666,5.0666,0,0,1-1.3-.2,2.3838,2.3838,0,0,1-1.1-.6,5.4956,5.4956,0,0,1-.7-.9,2.7681,2.7681,0,0,1-.3-1.3h.3Z"/></g><g class="b"><polygon points="75.5 49.6 77.3 44 78.1 44 75.9 50.6 75.1 50.6 73.6 45 73.6 45 72.1 50.6 71.2 50.6 69.2 44 70 44 71.7 49.6 73.2 44 74.1 44 75.5 49.6"/></g><g class="b"><path d="M79.2,41.4H80v1.1h-.8Zm.1,2.6h.8v6.6h-.8Z"/></g><g class="b"><path d="M82.5,48.5a1.7094,1.7094,0,0,0,.6,1.2,2.5012,2.5012,0,0,0,1.3.4,1.4828,1.4828,0,0,0,.7-.1,2.1859,2.1859,0,0,0,.5-.3,1.38,1.38,0,0,0,.3-.4.7494.7494,0,0,0,.1-.5.7786.7786,0,0,0-.3-.7,2.01,2.01,0,0,0-.8-.4,3.553,3.553,0,0,0-1-.2c-.4-.1-.7-.2-1-.3a1.5551,1.5551,0,0,1-.8-.6,1.493,1.493,0,0,1-.3-1,1.8157,1.8157,0,0,1,.6-1.4,2.3109,2.3109,0,0,1,1.7-.5,3.4533,3.4533,0,0,1,1.8.5,2.4494,2.4494,0,0,1,.8,1.6h-.8a1.6839,1.6839,0,0,0-.6-1.1,2.1324,2.1324,0,0,0-1.2-.3,1.6086,1.6086,0,0,0-1.1.3.9846.9846,0,0,0-.1,1.5,2.01,2.01,0,0,0,.8.4c.3.1.7.2,1,.3.4.1.7.2,1,.3a1.5551,1.5551,0,0,1,.8.6,1.493,1.493,0,0,1,.3,1,1.8839,1.8839,0,0,1-.2.8,1.6979,1.6979,0,0,1-.6.6,1.8844,1.8844,0,0,1-.9.4,3.75,3.75,0,0,1-1.1.1,2.9585,2.9585,0,0,1-1-.2,2.1774,2.1774,0,0,1-.8-.5,1.7937,1.7937,0,0,1-.5-.7,2.92,2.92,0,0,1-.2-.9h1v.1Z"/></g><g class="b"><path d="M88.9,48.5a1.7094,1.7094,0,0,0,.6,1.2,2.5012,2.5012,0,0,0,1.3.4,1.4828,1.4828,0,0,0,.7-.1,2.1859,2.1859,0,0,0,.5-.3,1.38,1.38,0,0,0,.3-.4.7494.7494,0,0,0,.1-.5.7786.7786,0,0,0-.3-.7,2.01,2.01,0,0,0-.8-.4,3.553,3.553,0,0,0-1-.2c-.4-.1-.7-.2-1-.3a1.5551,1.5551,0,0,1-.8-.6,1.493,1.493,0,0,1-.3-1,1.816,1.816,0,0,1,.6-1.4,2.3112,2.3112,0,0,1,1.7-.5,3.453,3.453,0,0,1,1.8.5,2.449,2.449,0,0,1,.8,1.6h-.8a1.6834,1.6834,0,0,0-.6-1.1,2.1324,2.1324,0,0,0-1.2-.3,1.6086,1.6086,0,0,0-1.1.3.9846.9846,0,0,0-.1,1.5,2.01,2.01,0,0,0,.8.4c.3.1.7.2,1,.3.4.1.7.2,1,.3a1.5551,1.5551,0,0,1,.8.6,1.493,1.493,0,0,1,.3,1,1.8839,1.8839,0,0,1-.2.8,1.6979,1.6979,0,0,1-.6.6,1.8844,1.8844,0,0,1-.9.4,3.75,3.75,0,0,1-1.1.1,2.9585,2.9585,0,0,1-1-.2,2.1774,2.1774,0,0,1-.8-.5,1.7937,1.7937,0,0,1-.5-.7,2.92,2.92,0,0,1-.2-.9h1v.1Z"/></g><g class="b"><path d="M63,57.7a3.5521,3.5521,0,0,1,2.8-1.1,3.9366,3.9366,0,0,1,3.4,1.5,2.9344,2.9344,0,0,1,.6,1.7H67.9a2.3445,2.3445,0,0,0-.5-1,1.8866,1.8866,0,0,0-1.5-.6,1.9432,1.9432,0,0,0-1.6.8,4.2652,4.2652,0,0,0-.6,2.4,3.7148,3.7148,0,0,0,.6,2.3,2.0876,2.0876,0,0,0,1.6.8,1.5786,1.5786,0,0,0,1.5-.7,2.2574,2.2574,0,0,0,.5-1.1h1.9a4.6565,4.6565,0,0,1-1.3,2.5,3.7385,3.7385,0,0,1-2.6.9,3.87,3.87,0,0,1-3.1-1.3,4.9138,4.9138,0,0,1-1.1-3.5A5.2705,5.2705,0,0,1,63,57.7"/></g><g class="b"><path d="M73,59.2v4.1a2.22,2.22,0,0,0,.1.9,1.1034,1.1034,0,0,0,1,.5,1.1323,1.1323,0,0,0,1.2-.7,3.0868,3.0868,0,0,0,.2-1.1V59.2h1.8V66H75.6V65a.3491.3491,0,0,0-.1.2c-.1.1-.1.2-.2.3a1.769,1.769,0,0,1-.8.5,2.7686,2.7686,0,0,1-.9.1,1.9927,1.9927,0,0,1-2-1.1,4.1782,4.1782,0,0,1-.3-1.8V59.1H73v.1Z"/></g><g class="b"><rect x="79.1" y="56.8" width="1.8" height="9.2"/></g><g class="b"><path d="M81.9,60.5V59.2h1V57.3h1.8v1.9h1.1v1.3H84.7v3.6c0,.3,0,.5.1.5.1.1.3.1.7.1h.4V66h-.8a2.5013,2.5013,0,0,1-1.7-.4,1.2224,1.2224,0,0,1-.3-.9V60.5Z"/></g><g class="b"><path d="M88.7,59.2v4.1a2.22,2.22,0,0,0,.1.9,1.1034,1.1034,0,0,0,1,.5A1.1323,1.1323,0,0,0,91,64a3.0868,3.0868,0,0,0,.2-1.1V59.2H93V66H91.3V65a.3491.3491,0,0,0-.1.2c-.1.1-.1.2-.2.3a1.769,1.769,0,0,1-.8.5,2.7686,2.7686,0,0,1-.9.1,1.9927,1.9927,0,0,1-2-1.1,4.1782,4.1782,0,0,1-.3-1.8V59.1h1.7v.1Z"/></g><g class="b"><path d="M98.5,59h.2v1.8h-.5c-.7,0-1.2.2-1.4.7a3.73,3.73,0,0,0-.2,1.2V66H94.8V59.2h1.7v1.2a2.4757,2.4757,0,0,1,.7-.9,1.4282,1.4282,0,0,1,1.3-.5h0"/></g><g class="b"><path d="M102.4,61.8a1.1655,1.1655,0,0,0,.7-.2.51.51,0,0,0,.4-.5.6047.6047,0,0,0-.3-.6,1.9968,1.9968,0,0,0-.9-.2,1.2227,1.2227,0,0,0-.9.3l-.3.6H99.4a2.4559,2.4559,0,0,1,.5-1.5,2.9526,2.9526,0,0,1,2.4-.9,4.2114,4.2114,0,0,1,2,.4,1.7516,1.7516,0,0,1,.9,1.7v3.9a.7494.7494,0,0,0,.1.5c.1.1.1.2.3.2V66h-1.9a.6012.6012,0,0,1-.1-.4v-.4a2.1776,2.1776,0,0,1-.9.7,2.7681,2.7681,0,0,1-1.3.3,2.4563,2.4563,0,0,1-1.5-.5,2.0352,2.0352,0,0,1-.6-1.5,1.9043,1.9043,0,0,1,1-1.8,3.4083,3.4083,0,0,1,1.6-.4Zm1.1.9c-.1.1-.2.1-.3.2a4.3311,4.3311,0,0,1-.5.1l-.4.1c-.4.1-.7.1-.8.2a.8117.8117,0,0,0-.4.8.9078.9078,0,0,0,.3.7,1.42,1.42,0,0,0,.6.2,2.2794,2.2794,0,0,0,1.1-.3,1.3638,1.3638,0,0,0,.5-1.2v-.8h-.1Z"/></g><g class="b"><rect x="106.9" y="56.8" width="1.8" height="9.2"/></g><g class="b"><polygon points="114.1 56.8 120.7 56.8 120.7 58.4 116 58.4 116 60.5 120.1 60.5 120.1 62.1 116 62.1 116 66 114.1 66 114.1 56.8"/></g><g class="b"><path d="M123.6,59.2v4.1a2.22,2.22,0,0,0,.1.9,1.1034,1.1034,0,0,0,1,.5,1.1323,1.1323,0,0,0,1.2-.7,3.0868,3.0868,0,0,0,.2-1.1V59.2h1.8V66h-1.7V65a.3491.3491,0,0,0-.1.2c-.1.1-.1.2-.2.3a1.769,1.769,0,0,1-.8.5,2.7686,2.7686,0,0,1-.9.1,1.9927,1.9927,0,0,1-2-1.1,4.1782,4.1782,0,0,1-.3-1.8V59.1h1.7v.1Z"/></g><g class="b"><path d="M135.1,59.6a2.481,2.481,0,0,1,.7,1.8V66H134V61.8a1.7192,1.7192,0,0,0-.1-.8c-.2-.4-.5-.5-1-.5a1.2058,1.2058,0,0,0-1.2.8,2.9585,2.9585,0,0,0-.2,1V66h-1.8V59.2h1.7v1a5.5469,5.5469,0,0,1,.6-.8,2.116,2.116,0,0,1,1.4-.4,2.3522,2.3522,0,0,1,1.7.6"/></g><g class="b"><path d="M141.1,59.3a2.0469,2.0469,0,0,1,.8.8V56.8h1.8V66H142V65a2.5811,2.5811,0,0,1-.9.9,2.1326,2.1326,0,0,1-1.2.3,2.3343,2.3343,0,0,1-2-1,3.9365,3.9365,0,0,1-.8-2.5,4.1385,4.1385,0,0,1,.8-2.7,2.5122,2.5122,0,0,1,2.1-1,2.0158,2.0158,0,0,1,1.1.3m.4,4.8a2.41,2.41,0,0,0,.4-1.5,2.4447,2.4447,0,0,0-.6-1.8,1.6129,1.6129,0,0,0-.9-.3,1.1488,1.1488,0,0,0-1.1.6,3.3128,3.3128,0,0,0-.4,1.5,2.41,2.41,0,0,0,.4,1.5,1.2547,1.2547,0,0,0,1.1.6,1.1488,1.1488,0,0,0,1.1-.6"/></g><g class="b"><path d="M61.3,81.4l3.6-9.2h1l3.5,9.2h-.9l-1.1-2.9H63.2l-1.1,2.9Zm2.3-3.7h3.6l-1.8-4.8Z"/></g><g class="b"><rect x="70.7" y="72.1" width="0.8" height="9.2"/></g><g class="b"><path d="M74.3,81.4h-.8V72.2h.8v3.7a2.1889,2.1889,0,0,1,1-.9,3.194,3.194,0,0,1,1.4-.3A2.7681,2.7681,0,0,1,78,75a1.7646,1.7646,0,0,1,.9.8,3.6966,3.6966,0,0,1,.5,1.1,5.8526,5.8526,0,0,1,.2,1.3,6.7525,6.7525,0,0,1-.2,1.4,3.6966,3.6966,0,0,1-.5,1.1,2.0158,2.0158,0,0,1-.9.7,2.9041,2.9041,0,0,1-1.4.3,1.9523,1.9523,0,0,1-.7-.1,1.1405,1.1405,0,0,1-.6-.3c-.2-.1-.4-.3-.6-.4a2.09,2.09,0,0,1-.4-.6h0Zm0-3.4a3.75,3.75,0,0,0,.1,1.1,3.5521,3.5521,0,0,0,.4.9,2.0357,2.0357,0,0,0,.7.6,2.9585,2.9585,0,0,0,1,.2,2.92,2.92,0,0,0,.9-.2,1.7937,1.7937,0,0,0,.7-.5,2.1774,2.1774,0,0,0,.5-.8,3.5949,3.5949,0,0,0,.2-1.1,4.8686,4.8686,0,0,0-.1-1.2,2.9946,2.9946,0,0,0-.4-1,1.3444,1.3444,0,0,0-.7-.6,1.6446,1.6446,0,0,0-1-.2,2.3882,2.3882,0,0,0-.9.2,4.3494,4.3494,0,0,0-.7.6,2.4707,2.4707,0,0,0-.4.9,2.2794,2.2794,0,0,0-.3,1.1"/></g><g class="b"><path d="M84.4,77.5a1.0873,1.0873,0,0,0,.5-.1,4.3311,4.3311,0,0,0,.5-.1c.1-.1.2-.2.2-.3v-.4a1.2839,1.2839,0,0,0-.4-1,1.6969,1.6969,0,0,0-1.3-.4,1.4828,1.4828,0,0,0-.7.1,1.4213,1.4213,0,0,0-.6.2.9984.9984,0,0,0-.4.5,1.4453,1.4453,0,0,0-.2.7h-.8a1.6894,1.6894,0,0,1,.3-1,4.3537,4.3537,0,0,1,.6-.7,2.01,2.01,0,0,1,.8-.4,3.4019,3.4019,0,0,1,1-.1,2.7686,2.7686,0,0,1,.9.1,6.89,6.89,0,0,1,.8.3,2.6513,2.6513,0,0,1,.5.6,2.9585,2.9585,0,0,1,.2,1v3.6a.8454.8454,0,0,0,.2.6c.1.1.3.1.6-.1v.6c-.1,0-.1,0-.3.1-.1,0-.2.1-.3.1h-.3c-.1,0-.2-.1-.3-.1l-.2-.2c0-.1-.1-.2-.1-.3v-.3a2.8348,2.8348,0,0,1-1.1.8,3.194,3.194,0,0,1-1.4.3,1.95,1.95,0,0,1-.8-.1,1.6123,1.6123,0,0,1-.7-.4,2.6513,2.6513,0,0,1-.5-.6,1.8839,1.8839,0,0,1-.2-.8c0-1.1.8-1.8,2.3-2Zm1.3.4c-.3.1-.7.2-1,.3-.3,0-.7.1-1,.1a2.8906,2.8906,0,0,0-1.4.4,1.2308,1.2308,0,0,0-.5,1,.7494.7494,0,0,0,.1.5,1.38,1.38,0,0,0,.3.4.7638.7638,0,0,0,.5.2,4.3311,4.3311,0,0,1,.5.1,2.7686,2.7686,0,0,0,.9-.1,2.994,2.994,0,0,0,.8-.4,2.6513,2.6513,0,0,0,.5-.6,1.9968,1.9968,0,0,0,.2-.9v-1Z"/></g><g class="b"><path d="M89.2,81.4h-.8V74.8h.8v.9a3.9153,3.9153,0,0,1,1-.8,2.1326,2.1326,0,0,1,1.2-.3,3.5949,3.5949,0,0,1,1.1.2c.4.1.6.4.9.7a1.08,1.08,0,0,1,.3.7v5.1h-.8V77a1.8026,1.8026,0,0,0-2.4-1.6,2.19,2.19,0,0,0-.5.3c-.2.1-.3.3-.4.4-.1.2-.2.3-.3.5a1.2683,1.2683,0,0,0-.1.6v4.2Z"/></g><g class="b"><path d="M95.6,72.1h.8v1.1h-.8Zm.1,2.6h.8v6.6h-.8Z"/></g><g class="b"><path d="M101.5,77.5a1.0873,1.0873,0,0,0,.5-.1,4.3311,4.3311,0,0,0,.5-.1c.1-.1.2-.2.2-.3v-.4a1.2839,1.2839,0,0,0-.4-1,1.6969,1.6969,0,0,0-1.3-.4,1.4828,1.4828,0,0,0-.7.1,1.4213,1.4213,0,0,0-.6.2.9984.9984,0,0,0-.4.5,1.4453,1.4453,0,0,0-.2.7h-.8a1.6894,1.6894,0,0,1,.3-1,4.3537,4.3537,0,0,1,.6-.7,2.01,2.01,0,0,1,.8-.4,3.4019,3.4019,0,0,1,1-.1,2.7686,2.7686,0,0,1,.9.1,6.89,6.89,0,0,1,.8.3,2.6513,2.6513,0,0,1,.5.6,2.9585,2.9585,0,0,1,.2,1v3.6a.8454.8454,0,0,0,.2.6c.1.1.3.1.6-.1v.6c-.1,0-.1,0-.3.1-.1,0-.2.1-.3.1h-.3c-.1,0-.2-.1-.3-.1l-.2-.2c0-.1-.1-.2-.1-.3v-.3a2.8341,2.8341,0,0,1-1.1.8,3.1926,3.1926,0,0,1-1.4.3,1.949,1.949,0,0,1-.8-.1,1.6127,1.6127,0,0,1-.7-.4,2.6513,2.6513,0,0,1-.5-.6,1.8839,1.8839,0,0,1-.2-.8c0-1.1.8-1.8,2.3-2Zm1.3.4c-.3.1-.7.2-1,.3-.3,0-.7.1-1,.1a2.8906,2.8906,0,0,0-1.4.4,1.2308,1.2308,0,0,0-.5,1,.7494.7494,0,0,0,.1.5,1.38,1.38,0,0,0,.3.4.7638.7638,0,0,0,.5.2,4.3311,4.3311,0,0,1,.5.1,2.7686,2.7686,0,0,0,.9-.1,2.994,2.994,0,0,0,.8-.4,2.6513,2.6513,0,0,0,.5-.6,1.9968,1.9968,0,0,0,.2-.9l.1-1Z"/></g><g class="b"><polygon points="9.4 40.3 9.4 75.3 45.4 75.3 45.4 80.3 4.4 80.3 4.4 40.3 9.4 40.3"/></g><g class="b"><path d="M23.8,49.2H36.6V62H23.8ZM14.7,71.1h31v-31h-31Z"/></g><g class="b"><rect x="417.8" y="12.6" width="1" height="6.4"/></g><g class="b"><path d="M419.8,14.2h.9v.6h0a1.3873,1.3873,0,0,1,1.2-.7c.7,0,1,.3,1.1.7a1.2127,1.2127,0,0,1,1.2-.7,1.1348,1.1348,0,0,1,1.2,1.3V19h-1V15.7q0-.9-.6-.9a.8175.8175,0,0,0-.8.9V19h-1V15.7q0-.9-.6-.9a.8176.8176,0,0,0-.8.9V19h-1V14.2Z"/></g><g class="b"><path d="M428.5,19.1a1.23,1.23,0,0,1-1.1-.7h0v2.2h-1V14.2h.9v.6h0a1.1256,1.1256,0,0,1,1.1-.7c1.1,0,1.6.9,1.6,2.6,0,2-.8,2.4-1.5,2.4m-.3-4.3c-.7,0-.8.7-.8,1.7,0,1.2.1,1.8.8,1.8.5,0,.8-.4.8-1.8,0-1-.1-1.7-.8-1.7"/></g><g class="b"><rect x="430.8" y="12.6" width="1" height="6.4"/></g><g class="b"><path d="M433.6,16.7V17c0,.6.1,1.5.8,1.5s.8-.8.8-1.1h.9a1.53,1.53,0,0,1-1.7,1.7c-.8,0-1.8-.2-1.8-2.5,0-1.3.3-2.6,1.8-2.6,1.3,0,1.7.8,1.7,2.2v.5Zm1.6-.7v-.3c0-.6-.2-1.1-.7-1.1-.6,0-.8.6-.8,1.2V16Z"/></g><g class="b"><path d="M437,14.2h.9v.6h0a1.3873,1.3873,0,0,1,1.2-.7c.7,0,1,.3,1.1.7a1.2127,1.2127,0,0,1,1.2-.7,1.1348,1.1348,0,0,1,1.2,1.3V19h-1V15.7q0-.9-.6-.9a.8175.8175,0,0,0-.8.9V19h-1V15.7q0-.9-.6-.9a.8176.8176,0,0,0-.8.9V19h-1V14.2Z"/></g><g class="b"><path d="M444.4,16.7V17c0,.6.1,1.5.8,1.5s.8-.8.8-1.1h.9a1.53,1.53,0,0,1-1.7,1.7c-.8,0-1.8-.2-1.8-2.5,0-1.3.3-2.6,1.8-2.6,1.3,0,1.7.8,1.7,2.2v.5ZM446,16v-.3c0-.6-.2-1.1-.7-1.1-.6,0-.8.6-.8,1.2V16Z"/></g><g class="b"><path d="M447.8,14.2h.9v.6h0a1.3873,1.3873,0,0,1,1.2-.7c.7,0,1.2.3,1.2,1.3V19h-1V15.7c0-.6-.2-.9-.7-.9a.8176.8176,0,0,0-.8.9V19h-1V14.2Z"/></g><g class="b"><path d="M451.7,14.2h.7V12.8h1v1.4h.8v.7h-.8v2.9c0,.4.1.5.4.5h.4V19a1.95,1.95,0,0,1-.8.1c-.6,0-1-.2-1-1.2v-3h-.7v-.7Z"/></g><g class="b"><path d="M455.4,16.7V17c0,.6.1,1.5.8,1.5s.8-.8.8-1.1h.9a1.53,1.53,0,0,1-1.7,1.7c-.8,0-1.8-.2-1.8-2.5,0-1.3.3-2.6,1.8-2.6,1.3,0,1.7.8,1.7,2.2v.5ZM457,16v-.3c0-.6-.2-1.1-.7-1.1-.6,0-.8.6-.8,1.2V16Z"/></g><g class="b"><path d="M461.2,18.4h0a1.0621,1.0621,0,0,1-1.1.7c-1.1,0-1.6-1-1.6-2.6,0-2.2.8-2.5,1.5-2.5a1.2294,1.2294,0,0,1,1.1.7h0V12.5h1V19h-.9Zm-.8-3.6c-.5,0-.8.5-.8,1.8,0,1.1.1,1.8.8,1.8s.8-.7.8-1.7c0-1.2-.1-1.9-.8-1.9"/></g><g class="b"><path d="M465.3,12.6h1v2.2h0a1.23,1.23,0,0,1,1.1-.7c.7,0,1.5.3,1.5,2.5,0,1.7-.5,2.6-1.6,2.6a1.164,1.164,0,0,1-1.1-.7h0V19h-.9Zm1.7,5.8c.7,0,.8-.7.8-1.8,0-1.3-.2-1.8-.8-1.8-.8,0-.9.7-.9,1.8.1,1.1.2,1.8.9,1.8"/></g><g class="b"><path d="M470.1,14.2l.8,3.6h0l.8-3.6h1l-1.3,5c-.4,1.3-.7,1.5-1.7,1.5h-.4v-.8h.3a.7549.7549,0,0,0,.7-.4l.1-.4-1.4-5h1.1v.1Z"/></g><g class="b"><path d="M473.4,14.4h1v1.2h-1Zm0,3.4h1V19h-1Z"/></g></svg>