<?xml version="1.0" encoding="utf-8"?>
<!-- Generator: Adobe Illustrator 19.0.0, SVG Export Plug-In . SVG Version: 6.00 Build 0)  -->
<svg version="1.1" id="Layer_1" xmlns="http://www.w3.org/2000/svg" xmlns:xlink="http://www.w3.org/1999/xlink" x="0px" y="0px"
	 viewBox="0 0 98 60" style="enable-background:new 0 0 98 60;" xml:space="preserve">
<style type="text/css">
	.st0{fill:#FFFFFF;}
</style>
<g>
	<path d="M49.1,5C51,5,53,5.1,55,5.3c5.7,0.5,11.3,1.7,16.7,3.8c3.4,1.4,6.7,3.1,9.6,5.3c2.5,1.9,4.6,4,6.3,6.6
		c1.3,2.1,2.2,4.3,2.6,6.7c0.4,2.9,0.1,5.7-1.1,8.5c-1,2.4-2.5,4.6-4.3,6.5c-2.1,2.2-4.5,4-7.1,5.5c-3.9,2.3-8.1,3.8-12.4,5
		c-2.5,0.7-5.1,1.1-7.7,1.5c-3.5,0.4-6.9,0.6-10.4,0.5c-5.8-0.2-11.4-1-16.9-2.7c-4-1.2-7.8-2.9-11.4-5.2c-2.6-1.7-5-3.7-7-6.1
		c-1.6-2-2.9-4.3-3.6-6.9c-1.1-4.1-0.6-7.9,1.3-11.7c1.3-2.6,3.2-4.8,5.4-6.7c2.7-2.4,5.7-4.2,8.9-5.7c3.8-1.8,7.8-3,12-3.8
		c2-0.4,4.1-0.7,6.2-0.9C43.9,5.2,46.7,5,49.1,5z M49,7.6c-1,0-2,0-3,0.1c-1.5,0.1-3,0.2-4.6,0.4c-2.2,0.2-4.3,0.6-6.4,1.1
		c-3.6,0.8-7.2,2-10.5,3.6c-3.1,1.5-5.9,3.3-8.4,5.6c-1.8,1.6-3.2,3.5-4.3,5.7c-1.4,2.8-1.8,5.8-1.1,8.9c0.5,2,1.4,3.9,2.6,5.6
		c1.7,2.3,3.7,4.1,6,5.7c3.3,2.3,6.9,4,10.7,5.2c5.6,1.8,11.3,2.7,17.2,2.9c3.2,0.1,6.4-0.1,9.5-0.5c2.7-0.3,5.4-0.8,8-1.5
		c3.8-1,7.4-2.4,10.8-4.3c2.5-1.4,4.8-3,6.8-5.1c1.7-1.7,3.1-3.7,4-5.9c1-2.4,1.3-4.9,0.8-7.5c-0.4-2-1.2-3.9-2.4-5.6
		c-1.5-2.2-3.4-4-5.5-5.6c-2.7-2-5.6-3.5-8.7-4.8c-5.1-2-10.4-3.2-15.8-3.7C52.9,7.7,51,7.7,49,7.6z"/>
	<path class="st0" d="M49,7.6c2,0,3.9,0.1,5.9,0.3c5.4,0.5,10.7,1.6,15.8,3.7c3.1,1.2,6.1,2.8,8.7,4.8c2.1,1.6,4,3.4,5.5,5.6
		c1.1,1.7,2,3.5,2.4,5.6c0.5,2.6,0.2,5-0.8,7.5c-0.9,2.3-2.3,4.2-4,5.9c-2,2-4.3,3.7-6.8,5.1c-3.4,1.9-7.1,3.3-10.8,4.3
		c-2.6,0.7-5.3,1.2-8,1.5c-3.2,0.4-6.3,0.5-9.5,0.5c-5.9-0.2-11.6-1-17.2-2.9c-3.8-1.3-7.4-2.9-10.7-5.2c-2.3-1.6-4.4-3.5-6-5.7
		c-1.2-1.7-2.1-3.5-2.6-5.6c-0.7-3.1-0.3-6,1.1-8.9c1.1-2.2,2.5-4,4.3-5.7c2.5-2.3,5.3-4.1,8.4-5.6c3.4-1.6,6.9-2.8,10.5-3.6
		c2.1-0.5,4.3-0.9,6.4-1.1c1.5-0.2,3-0.3,4.6-0.4C47,7.7,48,7.7,49,7.6z M62.1,31.6c0.3-1,0.5-2,0.8-3c0.3-1,0.5-2,0.8-3
		c0.2-1,0.5-2,0.7-3c0.2-1,0.5-2,0.7-3.1c-0.4,0.2-0.8,0.3-1.1,0.5c-1.4,0.8-2.2,2-2.6,3.5c-1.6,6-3.3,12-4.9,18.1
		c0,0.1,0,0.2-0.1,0.3c1.1,0,2.1,0,3.1,0c0-0.2,0.1-0.3,0.1-0.4c0.6-2.3,1.1-4.6,1.7-6.9c0.1-0.4,0.1-0.4,0.5-0.4
		c3.6,0,7.2,0,10.8,0c0.1,0,0.3,0,0.4,0c0.7,2.6,1.3,5.1,1.9,7.7c1.1,0,2.1,0,3.2,0c0-0.2-0.1-0.4-0.1-0.5
		c-1.2-4.5-2.5-9.1-3.7-13.6c-0.4-1.5-0.8-3.1-1.3-4.6c-0.5-1.7-1.6-2.9-3.3-3.6c-0.1,0-0.2-0.1-0.4-0.1c1,4.1,2,8.1,3,12.1
		C72,31.8,62.5,31.8,62.1,31.6z M29.4,19.2c0,0.2,0,0.4,0,0.6c0,7.1,0,14.3,0,21.4c0,0.1,0,0.2,0,0.4c0,0.1,0,0.2,0.1,0.3
		c1,0,1.9,0,2.9,0c0,0,0-0.1,0-0.1c0-0.1,0-0.1,0-0.2c0-7.4,0-14.8,0-22.2c0-0.1,0-0.1,0-0.2c0,0,0,0,0,0c0,0,0,0,0,0
		C31.4,19.2,30.4,19.2,29.4,19.2z M58.6,16.7c-0.4-0.1-15.9-0.1-16.3,0c0,0.1,0,0.2,0,0.3c0,2.4,0,4.8,0,7.2c0,0.3,0,0.6,0.1,0.9
		c0.2,1.3,1.6,2.4,3,2.3c0-0.5,0-0.9,0-1.4c0-0.5,0-0.9,0-1.4c0-0.5,0-0.9,0-1.4s0-0.9,0-1.4c0-0.5,0-0.9,0-1.4c0-0.5,0-0.9,0-1.4
		c4.4,0,8.8,0,13.2,0C58.6,18.3,58.6,17.5,58.6,16.7z M45.4,30.2c-0.5,0-1,0.1-1.5,0.3c-0.7,0.3-1.2,0.8-1.4,1.6
		c-0.1,0.4-0.2,0.9-0.2,1.3c0,2.7,0,5.4,0,8.1c0,0.1,0,0.2,0,0.3c1,0,2,0,3,0C45.4,38,45.4,34.2,45.4,30.2z M58,27.7
		c-0.9-0.1-12.2,0-12.4,0c-0.1,0.5-0.1,2.2,0.1,2.4c2.1,0.1,12.1,0,12.4-0.1C58,29.3,58,28.5,58,27.7z M29.3,19.1
		c-0.1-0.8-0.4-1.5-1.2-1.9c-0.5-0.3-1-0.4-1.6-0.4c-2,0-4,0-5.9,0c-0.1,0-0.2,0-0.3,0.1c0,0.8,0,1.6,0,2.3
		C20.6,19.2,28.9,19.2,29.3,19.1z M41.5,19.1c0-0.8,0-1.6,0-2.4c-0.2,0-0.4,0-0.5,0c-1.7,0-3.3,0-5,0c-0.3,0-0.6,0-0.9,0
		c-0.5,0.1-1,0.2-1.5,0.5c-0.7,0.4-1.1,1.1-1.1,1.9C35.5,19.1,38.5,19.1,41.5,19.1z M69.2,19.4c-0.1-0.4-0.2-0.8-0.3-1.2
		c-0.1-0.3-0.2-0.7-0.3-1c-0.3-0.6-0.7-0.9-1.4-0.9c-0.6,0-1.1,0.3-1.4,0.9c-0.3,0.7-0.4,1.5-0.6,2.3c0.7-0.1,1.3-0.2,2-0.2
		C67.9,19.2,68.5,19.3,69.2,19.4z"/>
	<path d="M62.1,31.6c0.4,0.1,9.9,0.1,10.3,0c-1-4-2-8-3-12.1c0.2,0,0.3,0.1,0.4,0.1c1.7,0.7,2.8,1.9,3.3,3.6c0.5,1.5,0.9,3,1.3,4.6
		c1.2,4.5,2.5,9.1,3.7,13.6c0,0.2,0.1,0.3,0.1,0.5c-1.1,0-2.1,0-3.2,0c-0.6-2.6-1.3-5.1-1.9-7.7c-0.1,0-0.3,0-0.4,0
		c-3.6,0-7.2,0-10.8,0c-0.4,0-0.4,0-0.5,0.4c-0.6,2.3-1.1,4.6-1.7,6.9c0,0.1-0.1,0.3-0.1,0.4c-1,0-2.1,0-3.1,0c0-0.1,0-0.2,0.1-0.3
		c1.6-6,3.3-12.1,4.9-18.1c0.4-1.5,1.2-2.7,2.6-3.5c0.3-0.2,0.7-0.3,1.1-0.5c-0.2,1.1-0.5,2.1-0.7,3.1c-0.2,1-0.5,2-0.7,3
		c-0.2,1-0.5,2-0.8,3C62.6,29.6,62.4,30.6,62.1,31.6z"/>
	<path d="M29.4,19.2c1,0,2,0,2.9,0c0,0,0,0,0,0c0,0,0,0,0,0c0,0.1,0,0.1,0,0.2c0,7.4,0,14.8,0,22.2c0,0.1,0,0.1,0,0.2c0,0,0,0,0,0.1
		c-0.9,0-1.9,0-2.9,0c0-0.1,0-0.2-0.1-0.3c0-0.1,0-0.2,0-0.4c0-7.1,0-14.3,0-21.4C29.4,19.7,29.4,19.5,29.4,19.2z"/>
	<path d="M58.6,16.7c0,0.8,0,1.6,0,2.4c-4.4,0-8.8,0-13.2,0c0,0.5,0,1,0,1.4c0,0.5,0,0.9,0,1.4c0,0.5,0,0.9,0,1.4s0,0.9,0,1.4
		c0,0.5,0,0.9,0,1.4c0,0.5,0,0.9,0,1.4c-1.4,0.1-2.7-0.9-3-2.3c-0.1-0.3-0.1-0.6-0.1-0.9c0-2.4,0-4.8,0-7.2c0-0.1,0-0.2,0-0.3
		C42.7,16.6,58.2,16.6,58.6,16.7z"/>
	<path d="M45.4,30.2c0,3.9,0,7.8,0,11.7c-1,0-2,0-3,0c0-0.1,0-0.2,0-0.3c0-2.7,0-5.4,0-8.1c0-0.4,0.1-0.9,0.2-1.3
		c0.2-0.8,0.7-1.3,1.4-1.6C44.4,30.4,44.9,30.3,45.4,30.2z"/>
	<path d="M58,27.7c0,0.8,0,1.6,0,2.4c-0.3,0.1-10.3,0.2-12.4,0.1c-0.1-0.3-0.2-1.9-0.1-2.4C45.8,27.6,57,27.6,58,27.7z"/>
	<path d="M29.3,19.1c-0.4,0.1-8.7,0.1-9,0c0-0.8,0-1.5,0-2.3c0.1,0,0.2-0.1,0.3-0.1c2,0,4,0,5.9,0c0.6,0,1.1,0.2,1.6,0.4
		C28.8,17.6,29.2,18.2,29.3,19.1z"/>
	<path d="M41.5,19.1c-3,0-6,0-9,0c0.1-0.8,0.4-1.5,1.1-1.9c0.5-0.3,1-0.4,1.5-0.5c0.3,0,0.6,0,0.9,0c1.7,0,3.3,0,5,0
		c0.2,0,0.3,0,0.5,0C41.5,17.5,41.5,18.3,41.5,19.1z"/>
	<path d="M69.2,19.4c-0.7-0.1-1.4-0.2-2-0.2c-0.6,0-1.3,0.1-2,0.2c0.2-0.8,0.3-1.6,0.6-2.3c0.3-0.6,0.7-0.9,1.4-0.9
		c0.6,0,1.1,0.3,1.4,0.9c0.1,0.3,0.2,0.7,0.3,1C69.1,18.5,69.1,18.9,69.2,19.4z"/>
</g>
</svg>
